<?xml version="1.0" encoding="utf-8"?>
<!-- Generator: Adobe Illustrator 26.5.0, SVG Export Plug-In . SVG Version: 6.00 Build 0)  -->
<svg version="1.1" id="Layer_1" xmlns="http://www.w3.org/2000/svg" xmlns:xlink="http://www.w3.org/1999/xlink" x="0px" y="0px"
	 viewBox="0 0 28 32" style="enable-background:new 0 0 28 32;" xml:space="preserve">
<path d="M25,2H3C1.3,2,0,3.3,0,5v22c0,1.7,1.3,3,3,3h8.6v-9.5H7.6V16h3.9v-3.4c0-3.9,2.3-6,5.9-6c1.7,0,3.5,0.3,3.5,0.3v3.8h-2
	c-1.9,0-2.5,1.2-2.5,2.4V16h4.3L20,20.5h-3.6V30H25c1.7,0,3-1.3,3-3V5C28,3.3,26.7,2,25,2z"/>
</svg>
