<?xml version="1.0" encoding="utf-8"?>
<!-- Generator: Adobe Illustrator 26.5.0, SVG Export Plug-In . SVG Version: 6.00 Build 0)  -->
<svg version="1.1" id="Layer_1" xmlns="http://www.w3.org/2000/svg" xmlns:xlink="http://www.w3.org/1999/xlink" x="0px" y="0px"
	 viewBox="0 0 28 32" style="enable-background:new 0 0 28 32;" xml:space="preserve">
<path d="M14,12.7c-1.8,0-3.3,1.5-3.3,3.3c0,1.8,1.5,3.3,3.3,3.3c1.8,0,3.3-1.5,3.3-3.3C17.3,14.2,15.8,12.7,14,12.7z M21.8,10.1
	c-0.3-0.9-1-1.6-1.9-1.9c-1.3-0.5-4.4-0.4-5.9-0.4S9.4,7.7,8.1,8.2c-0.9,0.3-1.6,1-1.9,1.9c-0.5,1.3-0.4,4.4-0.4,5.9
	s-0.1,4.6,0.4,5.9c0.3,0.9,1,1.6,1.9,1.9c1.3,0.5,4.4,0.4,5.9,0.4s4.6,0.1,5.9-0.4c0.9-0.3,1.6-1,1.9-1.9c0.5-1.3,0.4-4.4,0.4-5.9
	S22.3,11.4,21.8,10.1L21.8,10.1z M14,21.1c-2.8,0-5.1-2.3-5.1-5.1s2.3-5.1,5.1-5.1s5.1,2.3,5.1,5.1C19.1,18.8,16.8,21.1,14,21.1
	C14,21.1,14,21.1,14,21.1z M19.3,11.9c-0.7,0-1.2-0.5-1.2-1.2s0.5-1.2,1.2-1.2c0.7,0,1.2,0.5,1.2,1.2c0,0,0,0,0,0
	C20.5,11.3,20,11.9,19.3,11.9C19.3,11.9,19.3,11.9,19.3,11.9L19.3,11.9z M25,2H3C1.3,2,0,3.3,0,5v22c0,1.7,1.3,3,3,3h22
	c1.7,0,3-1.3,3-3V5C28,3.3,26.7,2,25,2z M23.9,20.1c-0.1,1.6-0.4,3-1.6,4.2s-2.6,1.5-4.2,1.6c-1.7,0.1-6.6,0.1-8.2,0
	c-1.6-0.1-3-0.4-4.2-1.6s-1.5-2.6-1.6-4.2c-0.1-1.7-0.1-6.6,0-8.2c0.1-1.6,0.4-3,1.6-4.2s2.6-1.5,4.2-1.6c1.7-0.1,6.6-0.1,8.2,0
	c1.6,0.1,3,0.4,4.2,1.6s1.5,2.6,1.6,4.2C24,13.5,24,18.5,23.9,20.1z"/>
</svg>
