<?xml version="1.0" encoding="UTF-8"?><svg id="Layer_1" xmlns="http://www.w3.org/2000/svg" viewBox="0 0 379.98 192.3"><defs><style>.cls-1,.cls-2{fill:#f1b3c8;}.cls-3{fill:#7f0e29;}.cls-4{fill:#7e2344;}.cls-5{fill:#c77797;}.cls-6{fill:#a94b70;}.cls-7,.cls-8{fill:#480318;}.cls-9{fill:#770828;}.cls-10{opacity:.29;}.cls-11{opacity:.8;}.cls-12{opacity:.72;}.cls-13{opacity:.71;}.cls-14{opacity:.75;}.cls-2{opacity:.52;}.cls-8{opacity:.66;}</style></defs><g><path class="cls-1" d="M57.54,162.86c-7.37-4.7-18.6-12.02-28.55-25.29-4.53-6.04-12.41-16.8-15.54-33.1-3.19-16.6,.29-29.84,1.98-36,1.47-5.34,4.47-14.2,10.69-23.81,9.81-15.14,21.77-23.12,25.59-25.53,5.05-3.18,16.67-10.33,32.73-11.91,22.35-2.19,41.58,7.59,42.99,4.22,.6-1.45-2.84-3.46-2.16-4.6,1.5-2.52,18.95,6.3,21.93,9.54,.11,.12,2.26,2.46,2.26,2.46,.41,1.25,.51,2.26,.52,2.96,0,.5-.03,.79,.17,.94,.55,.41,1.79-1.3,3.21-1.52,1.99-.31,3.5,2.47,7.2,6.87,2.41,2.86,1.65,1.54,7.28,7.78,2.96,3.28,4.44,4.91,5.62,6.45,3.9,5.07,6.23,9.91,6.05,10.02-.36,.22-6.54-19.95-24.57-33.62C139.27,6.84,118.68,2.89,112.5,2.62c-1.7-.07-4.39,.04-8.42-.71-5.15-.97-6.43-2.24-9.78-1.83-3.46,.42-3.17,1.92-6.96,2.34-3.94,.44-8.42-.71-8.42-.71-7.83,3.13-14.3,6.26-19.21,8.85-3.44,1.81-9.47,5.77-21.53,13.68-2.87,1.88-5.37,3.56-7.33,6.72-1.81,2.92-1.27,4.06-3.25,6.02-2.71,2.68-5.56,2.38-6.55,5-.57,1.51,.23,2.01-.5,3.5-1.05,2.11-3.06,1.9-4.03,3.7-.92,1.7,.44,2.7,.31,5.12-.28,5.17-6.83,6.88-6.27,10.82,.24,1.69,1.49,1.66,2.12,3.79,.96,3.21-1.06,6.04-2.12,8.36-4.14,9.07,3.99,15.63-.19,24.81-1.64,3.6-3.23,3.33-4.84,6.13-7.27,12.62,11.65,41.43,34.8,58.17,12.33,8.92,23.54,12.74,27.73,14.04,24.7,7.7,45.83,2.95,54.18,.58,10.97-3.12,18.5-7.43,25.12-11.24,14.68-8.42,22.13-16.32,29.93-24.76,6.67-7.21,10.49-12.83,9.04-17.74-.66-2.24-2.56-4.81-3.5-4.55-1.18,.32-.5,4.94-1.63,5.21-1.2,.28-2.71-4.75-4.2-4.58-1.51,.17-1.97,5.52-2.26,7.47-1.47,10.07-10.79,16.9-23.12,25.93-7.95,5.83-15.46,11.33-27.23,15.19-5.86,1.92-26.67,8.44-49.46,.16-6.83-2.48-11.44-5.42-17.38-9.21Z"/><path class="cls-6" d="M56.07,170.55c-7.37-4.7-18.6-12.02-28.55-25.29-4.53-6.04-12.41-16.8-15.54-33.1-3.19-16.6,.29-29.84,1.98-36,1.47-5.34,4.47-14.2,10.69-23.81,9.81-15.14,21.77-23.12,25.59-25.53,5.05-3.18,16.67-10.33,32.73-11.91,22.35-2.19,41.58,7.59,42.99,4.22,.6-1.45-2.84-3.46-2.16-4.6,1.5-2.52,18.95,6.3,21.93,9.54,.11,.12,2.26,2.46,2.26,2.46,.41,1.25,.51,2.26,.52,2.96,0,.5-.03,.79,.17,.94,.55,.41,1.79-1.3,3.21-1.52,1.99-.31,3.5,2.47,7.2,6.87,2.41,2.86,1.65,1.54,7.28,7.78,2.96,3.28,4.44,4.91,5.62,6.45,3.9,5.07,6.23,9.91,6.05,10.02-.36,.22-6.54-19.95-24.57-33.62-15.66-11.87-36.25-15.82-42.43-16.09-1.7-.07-4.39,.04-8.42-.71-5.15-.97-6.43-2.24-9.78-1.83-3.46,.42-3.17,1.92-6.96,2.34-3.94,.44-8.42-.71-8.42-.71-7.83,3.13-14.3,6.26-19.21,8.85-3.44,1.81-9.47,5.77-21.53,13.68-2.87,1.88-5.37,3.56-7.33,6.72-1.81,2.92-1.27,4.06-3.25,6.02-2.71,2.68-5.56,2.38-6.55,5-.57,1.51,.23,2.01-.5,3.5-1.05,2.11-3.06,1.9-4.03,3.7-.92,1.7,.44,2.7,.31,5.12-.28,5.17-6.83,6.88-6.27,10.82,.24,1.69,1.49,1.66,2.12,3.79,.96,3.21-1.06,6.04-2.12,8.36-4.14,9.07,3.99,15.63-.19,24.81-1.64,3.6-3.23,3.33-4.84,6.13-7.27,12.62,11.65,41.43,34.8,58.17,12.33,8.92,23.54,12.74,27.73,14.04,24.7,7.7,45.83,2.95,54.18,.58,10.97-3.12,18.5-7.43,25.12-11.24,14.68-8.42,22.13-16.32,29.93-24.76,6.67-7.21,10.49-12.83,9.04-17.74-.66-2.24-2.56-4.81-3.5-4.55-1.18,.32-.5,4.94-1.63,5.21-1.2,.28-2.71-4.75-4.2-4.58-1.51,.17-1.97,5.52-2.26,7.47-1.47,10.07-10.79,16.9-23.12,25.93-7.95,5.83-15.46,11.33-27.23,15.19-5.86,1.92-26.67,8.44-49.46,.16-6.83-2.48-11.44-5.42-17.38-9.21Z"/><path class="cls-5" d="M31.19,142.31c-4.75-7.34-11.94-18.65-15.48-34.86-1.61-7.37-4.31-20.44-.4-36.57,3.99-16.43,12.65-27.03,16.74-31.93,3.55-4.25,9.96-11.06,19.61-17.22,15.21-9.7,29.4-12,33.87-12.61,5.91-.8,19.46-2.48,34.72,2.75,21.24,7.29,34.68,24.16,37.36,21.68,1.15-1.06-1.15-4.33-.06-5.09,2.41-1.68,14.62,13.6,15.99,17.78,.05,.15,1.03,3.17,1.03,3.17-.15,1.31-.47,2.27-.75,2.91-.2,.46-.35,.71-.24,.92,.33,.61,2.17-.44,3.55-.05,1.95,.54,2.16,3.69,3.7,9.24,1,3.6,.86,2.09,3.4,10.1,1.33,4.21,2,6.31,2.43,8.19,1.44,6.23,1.56,11.61,1.34,11.63-.41,.05,2.33-20.87-8.4-40.79-9.32-17.3-26.42-29.44-31.92-32.24-1.52-.77-4.02-1.78-7.36-4.14-4.28-3.02-4.93-4.71-8.14-5.72-3.33-1.05-3.68,.43-7.31-.76-3.77-1.24-7.36-4.14-7.36-4.14-8.43-.41-15.61-.23-21.15,.08-3.88,.22-11.01,1.32-25.27,3.51-3.39,.52-6.36,1.01-9.46,3.08-2.86,1.91-2.84,3.17-5.46,4.13-3.58,1.32-6.05-.14-8.03,1.83-1.15,1.14-.62,1.93-1.91,2.97-1.83,1.49-3.57,.46-5.2,1.69-1.54,1.17-.72,2.64-1.84,4.78-2.4,4.59-9.07,3.43-10.2,7.24-.48,1.64,.66,2.13,.36,4.33-.46,3.31-3.47,5.05-5.4,6.72-7.53,6.53-2.86,15.87-10.47,22.49-2.99,2.6-4.32,1.69-6.95,3.57C-5.3,79.43-.04,113.5,14.07,138.35c7.52,13.23,16.13,21.36,19.4,24.29,19.28,17.25,40.47,21.71,49.06,23.01,11.28,1.72,19.91,.91,27.52,.2,16.85-1.57,26.91-5.66,37.51-10.1,9.06-3.79,14.86-7.32,15.58-12.39,.33-2.31-.33-5.44-1.3-5.59-1.2-.19-2.51,4.29-3.65,4.06-1.21-.24-.5-5.44-1.92-5.91-1.44-.47-4.08,4.2-5.16,5.86-5.52,8.55-16.83,10.89-31.8,14-9.65,2-18.77,3.89-31.08,2.52-6.13-.68-27.77-3.39-45.07-20.39-5.19-5.1-8.16-9.68-11.99-15.6Z"/><path class="cls-4" d="M48.08,159.91c-6.66-5.67-16.78-14.45-24.81-28.96-3.66-6.6-9.98-18.34-10.86-34.92-.89-16.88,4.38-29.52,6.9-35.39,2.19-5.09,6.37-13.45,13.86-22.12,11.79-13.65,24.73-19.92,28.84-21.78,5.44-2.46,17.93-7.95,34.05-7.31,22.44,.9,40.15,13.22,42.01,10.07,.8-1.35-2.34-3.82-1.51-4.86,1.83-2.3,17.9,8.84,20.41,12.45,.09,.13,1.9,2.75,1.9,2.75,.24,1.3,.2,2.31,.11,3-.06,.49-.14,.78,.04,.95,.49,.49,1.95-1.04,3.39-1.07,2.02-.04,3.13,2.92,6.19,7.79,1.99,3.16,1.42,1.75,6.15,8.7,2.48,3.65,3.72,5.48,4.68,7.15,3.17,5.56,4.81,10.67,4.62,10.76-.38,.16-3.75-20.66-19.73-36.67-13.88-13.91-33.74-20.64-39.82-21.75-1.68-.31-4.36-.56-8.24-1.86-4.97-1.67-6.07-3.1-9.43-3.15-3.49-.05-3.4,1.47-7.22,1.36-3.97-.11-8.24-1.86-8.24-1.86-8.19,2.02-15.02,4.25-20.25,6.13-3.66,1.32-10.17,4.41-23.21,10.6-3.1,1.47-5.8,2.79-8.18,5.66-2.2,2.65-1.82,3.85-4.05,5.52-3.05,2.29-5.84,1.6-7.17,4.05-.77,1.42-.04,2.02-.98,3.4-1.33,1.95-3.29,1.46-4.5,3.11-1.15,1.56,.06,2.74-.4,5.11-.98,5.08-7.71,5.88-7.7,9.86,0,1.71,1.25,1.85,1.59,4.04,.51,3.31-1.88,5.84-3.25,7.99-5.35,8.42,1.81,16.03-3.59,24.55-2.12,3.35-3.65,2.86-5.63,5.41-8.93,11.5,5.86,42.63,26.5,62.4,10.99,10.52,21.57,15.84,25.54,17.71,23.41,11.01,44.99,9.21,53.59,8,11.3-1.59,19.34-4.83,26.43-7.69,15.7-6.33,24.16-13.13,33.04-20.42,7.6-6.23,12.15-11.27,11.38-16.33-.35-2.31-1.87-5.12-2.84-4.99-1.21,.16-1.17,4.83-2.33,4.94-1.23,.12-2.03-5.07-3.53-5.11-1.52-.04-2.71,5.19-3.26,7.09-2.84,9.77-13,15.26-26.46,22.52-8.68,4.68-16.87,9.1-29.06,11.32-6.07,1.1-27.58,4.7-49.02-6.63-6.43-3.4-10.59-6.94-15.95-11.51Z"/><path class="cls-7" d="M61.73,168.71c-7.28-4.77-18.38-12.18-28.36-25.38-4.55-6.01-12.47-16.7-15.91-32.69-3.51-16.28-.44-29.12,1.05-35.09,1.3-5.18,4-13.75,9.82-22.98,9.17-14.54,20.6-22.05,24.25-24.3,4.83-2.98,15.96-9.68,31.53-10.83,21.67-1.59,40.61,8.42,41.89,5.16,.55-1.4-2.84-3.45-2.22-4.55,1.39-2.43,18.57,6.61,21.54,9.84,.11,.12,2.25,2.46,2.25,2.46,.43,1.23,.55,2.22,.58,2.9,.02,.49,0,.78,.18,.92,.55,.42,1.71-1.22,3.08-1.41,1.93-.26,3.46,2.49,7.17,6.88,2.41,2.85,1.64,1.55,7.27,7.77,2.96,3.27,4.43,4.9,5.61,6.43,3.91,5.05,6.3,9.83,6.12,9.93-.34,.2-6.84-19.64-24.7-33.42-15.51-11.97-35.62-16.32-41.63-16.73-1.66-.11-4.27-.06-8.2-.9-5.03-1.07-6.31-2.34-9.55-2.02-3.36,.33-3.03,1.8-6.71,2.12-3.82,.33-8.2-.9-8.2-.9-7.54,2.86-13.75,5.77-18.46,8.18-3.3,1.68-9.07,5.4-20.6,12.83-2.74,1.77-5.13,3.34-6.96,6.39-1.69,2.81-1.14,3.93-3.01,5.8-2.57,2.55-5.35,2.19-6.25,4.72-.52,1.46,.28,1.97-.4,3.4-.97,2.04-2.92,1.78-3.83,3.51-.85,1.64,.49,2.65,.42,5-.14,5.04-6.47,6.55-5.84,10.41,.27,1.66,1.49,1.66,2.16,3.75,1.01,3.15-.89,5.87-1.86,8.11-3.81,8.76,4.25,15.35,.42,24.21-1.51,3.48-3.06,3.17-4.56,5.86-6.76,12.14,12.33,40.72,35.24,57.64,12.2,9,23.19,13,27.3,14.38,24.19,8.11,44.62,3.99,52.68,1.88,10.59-2.78,17.8-6.81,24.15-10.36,14.07-7.87,21.12-15.4,28.49-23.44,6.31-6.88,9.88-12.27,8.35-17.1-.7-2.2-2.6-4.76-3.51-4.53-1.14,.29-.37,4.81-1.46,5.05-1.16,.25-2.75-4.7-4.2-4.57-1.46,.13-1.78,5.34-2.01,7.24-1.18,9.79-10.08,16.23-21.84,24.75-7.59,5.5-14.75,10.68-26.1,14.17-5.65,1.74-25.72,7.59-48.08-1.05-6.7-2.59-11.25-5.57-17.12-9.42Z"/><path class="cls-2" d="M57.23,169.49c-7.37-4.7-18.6-12.02-28.55-25.29-4.53-6.04-12.41-16.8-15.54-33.1-3.19-16.6,.29-29.84,1.98-36,1.47-5.34,4.47-14.2,10.69-23.81,9.81-15.14,21.77-23.12,25.59-25.53,5.05-3.18,16.67-10.33,32.73-11.91,22.35-2.19,41.58,7.59,42.99,4.22,.6-1.45-2.84-3.46-2.16-4.6,1.5-2.52,18.95,6.3,21.93,9.54,.11,.12,2.26,2.46,2.26,2.46,.41,1.25,.51,2.26,.52,2.96,0,.5-.03,.79,.17,.94,.55,.41,1.79-1.3,3.21-1.52,1.99-.31,3.5,2.47,7.2,6.87,2.41,2.86,1.65,1.54,7.28,7.78,2.96,3.28,4.44,4.91,5.62,6.45,3.9,5.07,6.23,9.91,6.05,10.02-.36,.22-6.54-19.95-24.57-33.62-15.66-11.87-36.25-15.82-42.43-16.09-1.7-.07-4.39,.04-8.42-.71-5.15-.97-6.43-2.24-9.78-1.83-3.46,.42-3.17,1.92-6.96,2.34-3.94,.44-8.42-.71-8.42-.71-7.83,3.13-14.3,6.26-19.21,8.85-3.44,1.81-9.47,5.77-21.53,13.68-2.87,1.88-5.37,3.56-7.33,6.72-1.81,2.92-1.27,4.06-3.25,6.02-2.71,2.68-5.56,2.38-6.55,5-.57,1.51,.23,2.01-.5,3.5-1.05,2.11-3.06,1.9-4.03,3.7-.92,1.7,.44,2.7,.31,5.12-.28,5.17-6.83,6.88-6.27,10.82,.24,1.69,1.49,1.66,2.12,3.79,.96,3.21-1.06,6.04-2.12,8.36-4.14,9.07,3.99,15.63-.19,24.81-1.64,3.6-3.23,3.33-4.84,6.13-7.27,12.62,11.65,41.43,34.8,58.17,12.33,8.92,23.54,12.74,27.73,14.04,24.7,7.7,45.83,2.95,54.18,.58,10.97-3.12,18.5-7.43,25.12-11.24,14.68-8.42,22.13-16.32,29.93-24.76,6.67-7.21,10.49-12.83,9.04-17.74-.66-2.24-2.56-4.81-3.5-4.55-1.18,.32-.5,4.94-1.63,5.21-1.2,.28-2.71-4.75-4.2-4.58-1.51,.17-1.97,5.52-2.26,7.47-1.47,10.07-10.79,16.9-23.12,25.93-7.95,5.83-15.46,11.33-27.23,15.19-5.86,1.92-26.67,8.44-49.46,.16-6.83-2.48-11.44-5.42-17.38-9.21Z"/><path class="cls-8" d="M60.04,166.86c-7.28-4.77-18.38-12.18-28.36-25.38-4.55-6.01-12.47-16.7-15.91-32.69-3.51-16.28-.44-29.12,1.05-35.09,1.3-5.18,4-13.75,9.82-22.98,9.17-14.54,20.6-22.05,24.25-24.3,4.83-2.98,15.96-9.68,31.53-10.83,21.67-1.59,40.61,8.42,41.89,5.16,.55-1.4-2.84-3.45-2.22-4.55,1.39-2.43,18.57,6.61,21.54,9.84,.11,.12,2.25,2.46,2.25,2.46,.43,1.23,.55,2.22,.58,2.9,.02,.49,0,.78,.18,.92,.55,.42,1.71-1.22,3.08-1.41,1.93-.26,3.46,2.49,7.17,6.88,2.41,2.85,1.64,1.55,7.27,7.77,2.96,3.27,4.43,4.9,5.61,6.43,3.91,5.05,6.3,9.83,6.12,9.93-.34,.2-6.84-19.64-24.7-33.42-15.51-11.97-35.62-16.32-41.63-16.73-1.66-.11-4.27-.06-8.2-.9-5.03-1.07-6.31-2.34-9.55-2.02-3.36,.33-3.03,1.8-6.71,2.12-3.82,.33-8.2-.9-8.2-.9-7.54,2.86-13.75,5.77-18.46,8.18-3.3,1.68-9.07,5.4-20.6,12.83-2.74,1.77-5.13,3.34-6.96,6.39-1.69,2.81-1.14,3.93-3.01,5.8-2.57,2.55-5.35,2.19-6.25,4.72-.52,1.46,.28,1.97-.4,3.4-.97,2.04-2.92,1.78-3.83,3.51-.85,1.64,.49,2.65,.42,5-.14,5.04-6.47,6.55-5.84,10.41,.27,1.66,1.49,1.66,2.16,3.75,1.01,3.15-.89,5.87-1.86,8.11-3.81,8.76,4.25,15.35,.42,24.21-1.51,3.48-3.06,3.17-4.56,5.86-6.76,12.14,12.33,40.72,35.24,57.64,12.2,9,23.19,13,27.3,14.38,24.19,8.11,44.62,3.99,52.68,1.88,10.59-2.78,17.8-6.81,24.15-10.36,14.07-7.87,21.12-15.4,28.49-23.44,6.31-6.88,9.88-12.27,8.35-17.1-.7-2.2-2.6-4.76-3.51-4.53-1.14,.29-.37,4.81-1.46,5.05-1.16,.25-2.75-4.7-4.2-4.57-1.46,.13-1.78,5.34-2.01,7.24-1.18,9.79-10.08,16.23-21.84,24.75-7.59,5.5-14.75,10.68-26.1,14.17-5.65,1.74-25.72,7.59-48.08-1.05-6.7-2.59-11.25-5.57-17.12-9.42Z"/></g><g><g class="cls-14"><path class="cls-1" d="M185.01,29.8c.85,.89,2.04,1.41,3.23,1.44,.17,0,.34,0,.48-.08,.18-.09,.3-.28,.44-.43,.28-.29,.67-.46,1.06-.47,.13,0,.28,0,.36-.1,.06-.08,.06-.19,.06-.29,0-.37,.11-.73,.21-1.08,.2-.68,.39-1.35,.59-2.03-.06,.14-.24,.17-.37,.1s-.22-.19-.3-.32c-.25-.38-.5-.76-.74-1.14-.27-.41-.54-.95-.29-1.36,.02,.26-.26,.44-.51,.43s-.48-.15-.71-.24c-1.17-.44-2.41,.24-3.46,.9-.2,.12-.42,.28-.44,.52-.01,.15,.05,.33-.05,.44-.05,.06-.12,.08-.18,.12-.17,.12-.17,.39-.1,.6s.18,.41,.17,.63-.23,.44-.42,.33c-.04,.39,.21,.79,.56,.92-.12,.13-.24,.27-.37,.4,.31,.07,.56,.38,.59,.71"/></g><path class="cls-5" d="M191.23,25.64c-.7-1.01-1.79-1.71-2.97-1.92-.16-.03-.33-.05-.49,0-.19,.07-.34,.23-.51,.36-.32,.25-.73,.36-1.12,.3-.13-.02-.28-.05-.37,.04-.07,.07-.09,.18-.11,.28-.07,.36-.22,.7-.38,1.03-.3,.64-.6,1.28-.9,1.91,.08-.12,.26-.13,.38-.04s.18,.23,.24,.36c.19,.41,.37,.83,.56,1.24,.2,.45,.39,1.02,.07,1.39,.02-.26,.33-.4,.57-.35s.45,.22,.67,.34c1.08,.62,2.42,.14,3.56-.35,.21-.09,.45-.21,.51-.45,.04-.15,0-.33,.11-.43,.06-.05,.13-.06,.2-.09,.19-.09,.23-.36,.19-.58s-.11-.43-.07-.65,.3-.4,.46-.26c.1-.38-.08-.81-.41-.99,.14-.11,.28-.23,.42-.34-.3-.12-.5-.46-.47-.79"/><g class="cls-14"><path class="cls-1" d="M191.69,25.94c-.7-1.01-1.79-1.71-2.97-1.92-.16-.03-.33-.05-.49,0-.19,.07-.34,.23-.51,.36-.32,.25-.73,.36-1.12,.3-.13-.02-.28-.05-.37,.04-.07,.07-.09,.18-.11,.28-.07,.36-.22,.7-.38,1.03-.3,.64-.6,1.28-.9,1.91,.08-.12,.26-.13,.38-.04s.18,.23,.24,.36c.19,.41,.37,.83,.56,1.24,.2,.45,.39,1.02,.07,1.39,.02-.26,.33-.4,.57-.35s.45,.22,.67,.34c1.08,.62,2.42,.14,3.56-.35,.21-.09,.45-.21,.51-.45,.04-.15,0-.33,.11-.43,.06-.05,.13-.06,.2-.09,.19-.09,.23-.36,.19-.58s-.11-.43-.07-.65,.3-.4,.46-.26c.1-.38-.08-.81-.41-.99,.14-.11,.28-.23,.42-.34-.3-.12-.5-.46-.47-.79"/></g><g class="cls-11"><path class="cls-6" d="M186.89,31.19c1.19,.32,2.48,.15,3.51-.44,.14-.08,.29-.18,.37-.32,.11-.18,.11-.4,.16-.6,.09-.39,.33-.74,.67-.95,.11-.07,.24-.14,.26-.27,.01-.1-.05-.19-.1-.28-.18-.32-.28-.68-.38-1.03-.18-.68-.37-1.36-.55-2.04,.02,.15-.12,.27-.26,.28s-.29-.05-.42-.12c-.41-.2-.82-.39-1.23-.59-.44-.21-.95-.53-.95-1.01,.15,.21,0,.52-.21,.64s-.48,.12-.73,.17c-1.23,.22-1.93,1.45-2.49,2.56-.1,.21-.21,.46-.1,.67,.07,.14,.21,.25,.19,.4-.01,.07-.07,.13-.09,.2-.08,.19,.06,.42,.22,.57s.37,.26,.47,.45,.03,.49-.19,.5c.17,.35,.59,.57,.96,.5-.03,.18-.07,.36-.1,.53,.3-.1,.68,.03,.87,.3"/></g><g class="cls-10"><path class="cls-3" d="M191.44,25.34c-.7-1.01-1.79-1.71-2.97-1.92-.16-.03-.33-.05-.49,0-.19,.07-.34,.23-.51,.36-.32,.25-.73,.36-1.12,.3-.13-.02-.28-.05-.37,.04-.07,.07-.09,.18-.11,.28-.07,.36-.22,.7-.38,1.03-.3,.64-.6,1.28-.9,1.91,.08-.12,.26-.13,.38-.04s.18,.23,.24,.36c.19,.41,.37,.83,.56,1.24,.2,.45,.39,1.02,.07,1.39,.02-.26,.33-.4,.57-.35s.45,.22,.67,.34c1.08,.62,2.42,.14,3.56-.35,.21-.09,.45-.21,.51-.45,.04-.15,0-.33,.11-.43,.06-.05,.13-.06,.2-.09,.19-.09,.23-.36,.19-.58s-.11-.43-.07-.65,.3-.4,.46-.26c.1-.38-.08-.81-.41-.99,.14-.11,.28-.23,.42-.34-.3-.12-.5-.46-.47-.79"/><path class="cls-9" d="M192.73,24.58c-.61-.84-1.35-1.58-2.29-2.05-1.03-.52-2.46-1-3.49-.25-.14,.11-.29,.22-.42,.34-.08,.07-.05,.05,.08-.06-.13,.07-.14,.08-.03,.03,.18-.1-.1,.04-.16,.03,.55,.06-.38-.1,.23,0-.98-.16-1.94,.24-2.21,1.28-.03,.12-.05,.25-.08,.37,0,.03-.17,.43-.05,.16-.09,.21-.2,.42-.29,.63-.24,.51-.48,1.02-.72,1.53-.32,.68-.24,1.45,.39,1.94,.58,.45,1.45,.42,1.97-.12l-.17,.14-.76,.2c-.77,.06-1.08-.92-.8-.33,.06,.12,.11,.25,.17,.37,.1,.23,.2,.45,.31,.68,.14,.32-.02,.08,.02,.03,0,0,.1,.3,.1,.31,.09,.28,.02-.29,0,.02,0-.1,.19-.5,.04-.3l2.74,1.16c-.1,.47-.93,1.04-1.4,.63,.08,.07,.24,.14,.33,.19,.32,.19,.67,.35,1.03,.44,.74,.18,1.5,.13,2.24-.03,.66-.15,1.3-.42,1.91-.7,.39-.17,.73-.45,.96-.81,.1-.16,.19-.35,.24-.53,.03-.16,.05-.33,.07-.49,.03-.27,0-.13-.11,.42l-.54,.54-.16,.06,.36-.15c.14-.08,.29-.2,.4-.32,.22-.23,.41-.55,.48-.87,.05-.22,.08-.46,.06-.69-.02-.2-.05-.4-.09-.59-.02-.09-.02-.09,0,0,.1,.54-.26,.92-1.09,1.14l-.76-.2,.07,.04c.8,.42,2.01,.09,2.2-.9,.21-1.08-.16-2.08-1.1-2.69l.3,2.36c.14-.11,.28-.23,.42-.34,.72-.58,.51-1.96-.3-2.36-.11-.06-.12-.06-.01,.02,.08,.05,.14,.12,.19,.21,.05,.08,.09,.55,.09,.28,.02-.78-.7-1.54-1.5-1.5s-1.48,.66-1.5,1.5,.44,1.71,1.21,2.08l-.3-2.36c-.14,.11-.28,.23-.42,.34-.79,.64-.43,1.88,.3,2.36-.16-.11-.25-.24-.3-.42,.08,.26,0-.19,.03-.28l2.2-.9c-.87-.46-1.9-.22-2.43,.63-.2,.32-.29,.68-.3,1.05,0,.2,.04,.4,.07,.59s.02,.24,.02,.02c-.02,.31,.11,.17,.4-.41,.54-.53,.56-.65,.04-.36-.21,.11-.37,.25-.52,.44-.28,.37-.34,.7-.41,1.15l.03-.21c.52-.53,.66-.72,.41-.56-.08,.03-.15,.08-.23,.11,.31-.16-.06,.02-.11,.04-.1,.04-.2,.08-.3,.11-.2,.07-.4,.14-.61,.19-.1,.03-.2,.05-.31,.07-.38,.09,.29,0-.09,.01-.1,0-.2,0-.3,0-.32,0-.04,.04-.02,.01-.02,.02-.32-.09-.34-.09,.2,.06,.11,.05-.03-.04-.6-.35-1.22-.64-1.94-.47s-1.3,.69-1.45,1.4,.16,1.47,.87,1.77,1.42,0,1.87-.61c.78-1.06,.17-2.36-.3-3.4-.22-.49-.4-1.05-.81-1.41-.72-.63-1.81-.67-2.5,.04l2.36,1.82c.26-.55,.52-1.11,.78-1.66,.15-.33,.3-.66,.44-.99,.05-.13,.1-.26,.14-.39,.03-.09,.05-.18,.06-.27,.04-.16,.02-.14-.04,.08l-.54,.54c-.92,.06-1.04,.11-.38,.16h.12c.23,.02,.46-.01,.69-.05,.32-.06,.64-.18,.92-.35,.19-.11,.37-.25,.53-.4,.2-.19-.25,.09,.03-.02l-.42,.13c-.19-.03-.2-.03-.04,0,.11,.03,.22,.05,.33,.08s.21,.07,.32,.11c.35,.12-.27-.15,.06,.03,.2,.11,.39,.22,.59,.34,.28,.17-.17-.16,.06,.04,.09,.08,.17,.15,.26,.23,.1,.09,.19,.19,.28,.29,.26,.29-.09-.14,.09,.1,.46,.64,1.33,1.01,2.05,.54,.63-.41,1.03-1.37,.54-2.05h0Z"/></g><g class="cls-13"><path class="cls-7" d="M191.23,25.94c-.7-1.01-1.79-1.71-2.97-1.92-.16-.03-.33-.05-.49,0-.19,.07-.34,.23-.51,.36-.32,.25-.73,.36-1.12,.3-.13-.02-.28-.05-.37,.04-.07,.07-.09,.18-.11,.28-.07,.36-.22,.7-.38,1.03-.3,.64-.6,1.28-.9,1.91,.08-.12,.26-.13,.38-.04s.18,.23,.24,.36c.19,.41,.37,.83,.56,1.24,.2,.45,.39,1.02,.07,1.39,.02-.26,.33-.4,.57-.35s.45,.22,.67,.34c1.08,.62,2.42,.14,3.56-.35,.21-.09,.45-.21,.51-.45,.04-.15,0-.33,.11-.43,.06-.05,.13-.06,.2-.09,.19-.09,.23-.36,.19-.58s-.11-.43-.07-.65,.3-.4,.46-.26c.1-.38-.08-.81-.41-.99,.14-.11,.28-.23,.42-.34-.3-.12-.5-.46-.47-.79"/></g><g class="cls-12"><path class="cls-3" d="M185.33,26.2c.64-.67,1.62-1.13,2.68-1.27,.15-.02,.3-.03,.44,0,.18,.04,.31,.15,.46,.24,.29,.16,.66,.23,1.01,.2,.12-.01,.25-.03,.34,.03,.07,.04,.08,.12,.1,.18,.06,.24,.2,.46,.34,.68,.27,.42,.54,.84,.81,1.26-.07-.08-.24-.08-.34-.03s-.17,.15-.22,.24c-.17,.27-.34,.55-.5,.82-.18,.29-.35,.67-.07,.92-.02-.17-.3-.26-.52-.23s-.41,.14-.6,.23c-.98,.41-2.18,.09-3.21-.23-.19-.06-.41-.14-.46-.3-.03-.1,0-.22-.1-.28-.05-.03-.12-.04-.18-.06-.17-.06-.21-.24-.18-.38s.1-.29,.06-.43-.27-.26-.42-.17c-.09-.25,.07-.54,.37-.66-.13-.07-.25-.15-.38-.22,.27-.08,.45-.3,.42-.52"/><path class="cls-9" d="M186.39,27.26c.07-.07,.14-.14,.22-.21,.24-.24-.27,.17,.02-.02,.18-.12,.36-.23,.55-.33l.1-.05c.15-.07,.13-.06-.06,.02,.06-.05,.19-.07,.26-.09,.21-.07,.43-.13,.66-.17,.19-.04,.18-.02,0,0,.34-.02-.21-.02-.23-.11,.03,.13,.76,.38,.8,.4,.29,.1,.61,.15,.91,.17,.09,0,.18,0,.27,0,.05,0,.09,0,.14-.01,.17,0,.12-.01-.15-.02l-.66-.39c-.26-.51-.35-.66-.27-.43,.01,.05,.03,.1,.05,.15,.06,.15,.12,.31,.2,.46,.1,.19,.21,.36,.33,.54,.24,.37,.47,.74,.71,1.11l2.05-2.05c-.53-.4-1.39-.33-1.93,.02-.45,.29-.7,.75-.97,1.19-.23,.37-.45,.73-.57,1.15-.2,.7,.02,1.43,.52,1.94,1.02,1.06,2.97-.02,2.51-1.46-.21-.64-.69-1.11-1.35-1.27s-1.2,.02-1.78,.28c-.31,.14,.2-.05,0,0-.09,.02-.18,.05-.26,.07-.27,.08,.2,0,.02,0-.09,0-.19,.01-.28,0-.08,0-.15,0-.23,0-.01,0-.38-.04-.14,0s-.1-.02-.14-.03c-.1-.02-.19-.04-.28-.06-.17-.04-.34-.09-.51-.13-.1-.03-.44-.19-.53-.16l.17,.07,.54,.96c.08-.12-.09-.5-.15-.65-.14-.33-.64-.97-1.07-.94-.25-.11-.13,.07,.37,.54,.33,.2,.47,.46,.4,.78,.04-.04,.04-.16,.05-.21,.08-.45,.06-.94-.2-1.33-.43-.66-1.3-1.07-2.08-.79l1.85,1.05c.07,.29,0,.63-.18,.86-.05,.06-.34,.27-.14,.17,1.04-.5,.91-2.06,0-2.59-.13-.07-.25-.15-.38-.22l-.36,2.74c.86-.32,1.53-.99,1.52-1.97,0-.78-.69-1.54-1.5-1.5s-1.51,.66-1.5,1.5c0-.42,.31-.79,.68-.92-.57,.21-.99,.62-1.07,1.25-.08,.59,.19,1.19,.72,1.49,.13,.07,.25,.15,.38,.22v-2.59c-.87,.42-1.3,1.43-1.06,2.35,.19,.74,1.09,1.32,1.85,1.05l-1.28-.52-.2-.76c0-.07,.06-.29,.02-.08-.03,.17-.07,.33-.08,.51-.02,.27,.04,.55,.14,.8,.26,.61,.72,.86,1.31,1.09l-.66-.39,.05,.06-.39-.66c-.04-.38-.03-.33,.03,.15,.01,.09,.04,.18,.09,.25,.1,.23,.21,.44,.41,.61,.3,.27,.64,.42,1.02,.55,.47,.16,.96,.29,1.45,.37,.69,.11,1.34,.15,2.03,.02,.31-.06,.59-.17,.88-.3,.07-.03,.13-.06,.19-.09l-.16,.07c.17-.05,.14-.05-.1,0-.48-.02-.81-.31-1.01-.86l2.51-1.46c.25,.26,.29,.64,.25,.98,.02-.2,.02,.05-.05,.09,.09-.05,.2-.34,.25-.42,.08-.14,.17-.27,.25-.41,.04-.06,.09-.12,.12-.19,.1-.14,0-.07-.3,.21-.32,.36-.72,.41-1.21,.15,.5,.38,1.41,.21,1.82-.23,.44-.48,.6-1.24,.23-1.82-.22-.35-.45-.7-.67-1.05-.1-.16-.2-.34-.31-.5-.15-.22,.02,.16,0,.01-.02-.16-.12-.34-.18-.48-.32-.64-1.03-.93-1.71-.89-.09,0-.18,0-.27,0-.08,0-.07,0,.04,.01,.13,.02,.13,.02,0-.01l-.1-.03c.18,.09,.22,.1,.12,.05-.07-.05-.15-.09-.22-.13-.9-.52-1.98-.37-2.92-.03-.86,.3-1.66,.75-2.3,1.41-.55,.56-.6,1.57,0,2.12s1.53,.6,2.12,0h0Z"/></g></g><g><g class="cls-14"><path class="cls-1" d="M187.14,41.51c.13,.14,.32,.22,.51,.23,.03,0,.05,0,.08-.01,.03-.01,.05-.04,.07-.07,.04-.05,.1-.07,.17-.07,.02,0,.04,0,.06-.02,0-.01,0-.03,0-.05,0-.06,.02-.11,.03-.17,.03-.11,.06-.21,.09-.32,0,.02-.04,.03-.06,.02s-.03-.03-.05-.05c-.04-.06-.08-.12-.12-.18-.04-.06-.08-.15-.04-.21,0,.04-.04,.07-.08,.07s-.07-.02-.11-.04c-.18-.07-.38,.04-.54,.14-.03,.02-.07,.04-.07,.08,0,.02,0,.05,0,.07,0,0-.02,.01-.03,.02-.03,.02-.03,.06-.02,.09s.03,.06,.03,.1-.04,.07-.07,.05c0,.06,.03,.12,.09,.14l-.06,.06s.09,.06,.09,.11"/></g><path class="cls-5" d="M188.12,40.86c-.11-.16-.28-.27-.47-.3-.03,0-.05,0-.08,0-.03,.01-.05,.04-.08,.06-.05,.04-.11,.06-.18,.05-.02,0-.04,0-.06,0-.01,.01-.01,.03-.02,.04-.01,.06-.03,.11-.06,.16-.05,.1-.09,.2-.14,.3,.01-.02,.04-.02,.06,0s.03,.04,.04,.06c.03,.06,.06,.13,.09,.19,.03,.07,.06,.16,.01,.22,0-.04,.05-.06,.09-.05s.07,.03,.1,.05c.17,.1,.38,.02,.56-.06,.03-.01,.07-.03,.08-.07,0-.02,0-.05,.02-.07,0,0,.02,0,.03-.01,.03-.01,.04-.06,.03-.09s-.02-.07-.01-.1,.05-.06,.07-.04c.02-.06-.01-.13-.06-.16l.07-.05s-.08-.07-.07-.12"/><g class="cls-14"><path class="cls-1" d="M188.19,40.9c-.11-.16-.28-.27-.47-.3-.03,0-.05,0-.08,0-.03,.01-.05,.04-.08,.06-.05,.04-.11,.06-.18,.05-.02,0-.04,0-.06,0-.01,.01-.01,.03-.02,.04-.01,.06-.03,.11-.06,.16-.05,.1-.09,.2-.14,.3,.01-.02,.04-.02,.06,0s.03,.04,.04,.06c.03,.06,.06,.13,.09,.19,.03,.07,.06,.16,.01,.22,0-.04,.05-.06,.09-.05s.07,.03,.1,.05c.17,.1,.38,.02,.56-.06,.03-.01,.07-.03,.08-.07,0-.02,0-.05,.02-.07,0,0,.02,0,.03-.01,.03-.01,.04-.06,.03-.09s-.02-.07-.01-.1,.05-.06,.07-.04c.02-.06-.01-.13-.06-.16l.07-.05s-.08-.07-.07-.12"/></g><g class="cls-11"><path class="cls-6" d="M187.44,41.73c.19,.05,.39,.02,.55-.07,.02-.01,.04-.03,.06-.05,.02-.03,.02-.06,.02-.09,.01-.06,.05-.12,.1-.15,.02-.01,.04-.02,.04-.04,0-.02,0-.03-.02-.04-.03-.05-.04-.11-.06-.16-.03-.11-.06-.21-.09-.32,0,.02-.02,.04-.04,.04s-.04,0-.07-.02c-.06-.03-.13-.06-.19-.09-.07-.03-.15-.08-.15-.16,.02,.03,0,.08-.03,.1s-.08,.02-.11,.03c-.19,.04-.3,.23-.39,.4-.02,.03-.03,.07-.02,.11,.01,.02,.03,.04,.03,.06,0,.01-.01,.02-.01,.03-.01,.03,0,.07,.04,.09s.06,.04,.07,.07,0,.08-.03,.08c.03,.06,.09,.09,.15,.08l-.02,.08s.11,0,.14,.05"/></g><g class="cls-10"><path class="cls-3" d="M188.15,40.81c-.11-.16-.28-.27-.47-.3-.03,0-.05,0-.08,0-.03,.01-.05,.04-.08,.06-.05,.04-.11,.06-.18,.05-.02,0-.04,0-.06,0-.01,.01-.01,.03-.02,.04-.01,.06-.03,.11-.06,.16-.05,.1-.09,.2-.14,.3,.01-.02,.04-.02,.06,0s.03,.04,.04,.06c.03,.06,.06,.13,.09,.19,.03,.07,.06,.16,.01,.22,0-.04,.05-.06,.09-.05s.07,.03,.1,.05c.17,.1,.38,.02,.56-.06,.03-.01,.07-.03,.08-.07,0-.02,0-.05,.02-.07,0,0,.02,0,.03-.01,.03-.01,.04-.06,.03-.09s-.02-.07-.01-.1,.05-.06,.07-.04c.02-.06-.01-.13-.06-.16l.07-.05s-.08-.07-.07-.12"/><path class="cls-9" d="M189.45,40.05c-.09-.13-.19-.26-.29-.37-.02-.03-.05-.05-.08-.07-.12-.1-.24-.2-.38-.29-.03-.02-.07-.04-.1-.05-.14-.06-.29-.14-.44-.18-.1-.03-.2-.04-.3-.05-.24-.03-.19-.03-.44,0-.27,.04-.29,.03-.58,.19-.07,.04-.13,.1-.19,.14-.07,.05-.13,.1-.19,.15l.3-.23s-.03,.02-.05,.03l.36-.15s-.05,.02-.07,.02l.4-.05s-.04,0-.06,0l.4,.05h-.02c-.13-.02-.27-.04-.4-.06-.07,0-.14,0-.21,.03-.07,0-.14,.02-.21,.03-.05,.01-.32,.13-.37,.16-.06,.03-.11,.07-.16,.12-.16,.11-.29,.25-.39,.42h0c-.05,.13-.1,.25-.15,.37,0,.01,0,.02,0,.03,0,.04-.02,.07-.03,.1l.15-.36c-.05,.12-.11,.24-.17,.36-.11,.17-.17,.36-.18,.56-.04,.2-.04,.4,.03,.6l.15,.36c.09,.17,.22,.32,.39,.42,.09,.09,.2,.16,.33,.19,.18,.09,.37,.14,.58,.13l.4-.05c.25-.07,.47-.2,.66-.39h0c-.1,.07-.2,.15-.3,.23h.01c-.25,.06-.5,.13-.76,.2h.01c-.13-.02-.27-.04-.4-.05h.01c-.12-.05-.24-.1-.36-.15h.01c-.1-.07-.2-.15-.3-.23h.01c-.08-.09-.16-.19-.23-.29,.05,.07,.08,.17,.12,.25l-.15-.36s.02,.06,.03,.1l-.05-.4s0,.03,0,.05l.05-.4s0,.02,0,.03l.15-.36s0,.02-.02,.03l2.74,1.16h0c-.05,.11-.1,.23-.15,.35h0c-.08,.09-.16,.19-.23,.29,0,0,.01-.01,.02-.02l-.3,.23h.01c-.12,.04-.24,.09-.36,.14,0,0,.02,0,.03,0l-.4,.05s.02,0,.03,0l-.4-.05h.02c-.12-.05-.24-.1-.36-.15,.04,.02,.08,.05,.12,.07,.11,.06,.3,.15,.45,.18,.13,.03,.35,.07,.51,.05,.14-.01,.3-.03,.44-.06,.02,0,.05,0,.07-.01,.2-.05,.41-.15,.58-.23,.02,0,.03-.02,.05-.03l.3-.23c.09-.09,.18-.2,.25-.31,.19-.32,.18-.47,.22-.83l-.05,.4h0c-.05,.11-.1,.23-.15,.35h0c-.18,.17-.36,.35-.54,.53h.02c-.12,.04-.24,.09-.36,.14h.02c.12-.06,.24-.11,.36-.16h.01c.1-.09,.2-.16,.3-.24h0c.08-.11,.16-.21,.23-.31,.07-.11,.13-.25,.16-.38,.02-.07,.06-.35,.06-.41,0-.01,0-.02,0-.03,0-.07-.02-.14-.03-.21,0-.07-.02-.14-.03-.21,0-.02,0-.03,0-.05l.05,.4s0-.03,0-.04l-.05,.4h0c-.05,.11-.1,.22-.15,.34h0c-.08,.09-.16,.19-.23,.29h.01c-.1,.07-.2,.15-.3,.22h.01c-.12,.04-.24,.09-.36,.14h.01c-.13,.01-.27,.03-.4,.05h.01c-.25-.07-.5-.14-.76-.2h.01c.23,.14,.49,.21,.76,.21,.21,0,.4-.04,.58-.13,.19-.06,.35-.16,.48-.31,.19-.19,.31-.41,.39-.66,.06-.31,.09-.59-.01-.89-.09-.27-.2-.49-.4-.69-.1-.1-.22-.19-.34-.27l.3,2.36,.07-.05c.19-.19,.31-.41,.39-.66,.06-.2,.07-.4,.03-.6,0-.2-.07-.39-.18-.56-.13-.23-.31-.4-.54-.54,0,0-.02,0-.03-.02l.3,.23s-.02-.01-.02-.02l.23,.3s-.01-.02-.02-.03l.15,.36s0-.02,0-.03l.05,.4s0-.02,0-.03c0-.21-.04-.4-.13-.58-.06-.19-.16-.35-.31-.48-.14-.15-.3-.25-.48-.31-.18-.09-.37-.14-.58-.13l-.4,.05c-.25,.07-.47,.2-.66,.39l-.23,.3c-.14,.23-.2,.49-.2,.76,0,.26,.08,.61,.22,.83,.04,.06,.08,.11,.13,.16,.04,.06,.08,.11,.13,.16,.1,.1,.21,.2,.34,.26l-.3-2.36-.07,.05c-.19,.19-.31,.41-.39,.66-.06,.2-.07,.4-.03,.6,0,.2,.07,.39,.18,.56,.13,.23,.31,.4,.54,.54h.01c-.1-.07-.2-.15-.3-.23,0,0,.02,.01,.02,.02l-.23-.3s.01,.02,.02,.03l-.15-.36s.01,.03,.01,.05l-.05-.4s0,.02,0,.03l.05-.4v.02c.73-.3,1.47-.6,2.2-.9-.06-.03-.12-.06-.19-.08-.18-.09-.37-.14-.58-.13h-.01c-.13,.02-.27,.03-.4,.05-.07,.02-.13,.04-.19,.08-.07,.02-.13,.05-.19,.08l-.3,.23s-.09,.1-.13,.16c-.15,.2-.19,.23-.28,.52-.04,.14-.06,.28-.06,.42,0,.01,0,.02,0,.03l.05,.4s0,.04,.01,.06l-.05-.4s0,.03,0,.05l.05-.4h0c.05-.11,.1-.22,.15-.34h0c.08-.09,.16-.19,.23-.29h0c.1-.07,.2-.15,.3-.22h-.01c.12-.04,.24-.09,.36-.14-.07,.02-.13,.05-.2,.08-.07,.02-.13,.05-.19,.08l-.3,.23c-.08,.1-.16,.21-.24,.31-.04,.05-.07,.11-.08,.18-.03,.06-.06,.13-.08,.19l-.05,.4s0,.02,0,.03l.05-.4s0,.02,0,.03l.15-.36h0c.08-.09,.16-.19,.23-.29h-.01c.1-.07,.2-.15,.3-.22-.02,.02-.05,.03-.07,.04l.36-.15c-.09,.04-.19,.07-.28,.09l.4-.05s-.09,0-.13,0l.4,.05s-.06-.01-.09-.02l.36,.15s-.07-.04-.1-.06c-.07-.03-.13-.06-.2-.08-.06-.04-.13-.06-.2-.08-.2-.06-.28-.05-.43-.05l-.4,.05s-.02,0-.03,0l-.36,.15c-.12,.06-.22,.14-.32,.24-.05,.05-.07,.08-.14,.17-.14,.18-.22,.28-.28,.53-.06,.2-.07,.4-.03,.6,0,.2,.07,.39,.18,.56l.23,.3c.14,.15,.3,.25,.48,.31,.12,.07,.24,.1,.38,.1,.2,.04,.4,.04,.6-.03l.36-.15c.23-.13,.4-.31,.54-.54,.15-.2,.17-.39,.2-.61,.01-.08,.03-.15,.03-.23,0-.07-.02-.14-.03-.22,0-.07-.02-.14-.03-.22-.02-.09-.07-.18-.1-.26-.04-.09-.08-.18-.12-.27-.08-.18-.16-.32-.33-.48l-.3-.23c-.06-.03-.13-.06-.19-.08-.06-.04-.12-.07-.19-.08l-.4-.05c-.07,0-.14,.01-.21,.03-.2,0-.39,.07-.56,.18-.12,.07-.23,.15-.32,.25l2.36,1.82c.04-.09,.08-.17,.12-.26,.07-.15,.14-.3,.2-.46,.02-.04,.03-.09,.04-.13l-.15,.36h0c-.18,.17-.36,.35-.54,.53h.01c-.12,.04-.24,.09-.36,.14h.01c-.13,.02-.27,.03-.4,.05h.02c-.13-.02-.27-.03-.4-.05,.13,.02,.28,.05,.41,.06,.02,0,.03,0,.05,0,.07,0,.14-.01,.21-.03,.07,0,.14-.02,.21-.03,.02,0,.03,0,.05-.01h.02c.12-.06,.24-.11,.36-.16,.01,0,.02-.01,.03-.02,.13-.08,.24-.18,.36-.28l-.3,.23s.03-.02,.04-.02l-.36,.15h.02c-.13,.01-.27,.03-.4,.05,.01,0,.03,0,.04,0l-.4-.05c.06,0,.12,.03,.17,.05l-.36-.15c.05,.02,.11,.05,.15,.09l-.3-.23c.05,.04,.1,.09,.14,.14l-.23-.3s.01,.02,.02,.03c.09,.17,.22,.32,.39,.42,.14,.13,.31,.22,.51,.27,.2,.06,.4,.07,.6,.03,.2,0,.39-.07,.56-.18l.3-.23c.19-.19,.31-.41,.39-.66l.05-.4c0-.27-.07-.52-.2-.76h0Z"/></g><g class="cls-13"><path class="cls-7" d="M188.12,40.9c-.11-.16-.28-.27-.47-.3-.03,0-.05,0-.08,0-.03,.01-.05,.04-.08,.06-.05,.04-.11,.06-.18,.05-.02,0-.04,0-.06,0-.01,.01-.01,.03-.02,.04-.01,.06-.03,.11-.06,.16-.05,.1-.09,.2-.14,.3,.01-.02,.04-.02,.06,0s.03,.04,.04,.06c.03,.06,.06,.13,.09,.19,.03,.07,.06,.16,.01,.22,0-.04,.05-.06,.09-.05s.07,.03,.1,.05c.17,.1,.38,.02,.56-.06,.03-.01,.07-.03,.08-.07,0-.02,0-.05,.02-.07,0,0,.02,0,.03-.01,.03-.01,.04-.06,.03-.09s-.02-.07-.01-.1,.05-.06,.07-.04c.02-.06-.01-.13-.06-.16l.07-.05s-.08-.07-.07-.12"/></g><g class="cls-12"><path class="cls-3" d="M187.19,40.94c.1-.1,.25-.18,.42-.2,.02,0,.05,0,.07,0,.03,0,.05,.02,.07,.04,.05,.03,.1,.04,.16,.03,.02,0,.04,0,.05,0,.01,0,.01,.02,.02,.03,0,.04,.03,.07,.05,.11,.04,.07,.08,.13,.13,.2-.01-.01-.04-.01-.05,0s-.03,.02-.03,.04c-.03,.04-.05,.09-.08,.13-.03,.05-.05,.11-.01,.14,0-.03-.05-.04-.08-.04s-.06,.02-.09,.04c-.15,.06-.34,.01-.5-.04-.03,0-.06-.02-.07-.05,0-.02,0-.03-.02-.04,0,0-.02,0-.03,0-.03,0-.03-.04-.03-.06s.02-.04,.01-.07-.04-.04-.07-.03c-.01-.04,.01-.08,.06-.1l-.06-.04s.07-.05,.07-.08"/><path class="cls-9" d="M188.25,42s.04-.04,.06-.05l-.3,.23s.1-.07,.16-.09l-.36,.15c.07-.03,.13-.04,.2-.05l-.4,.05s.03,0,.05,0l-.4-.05s.02,0,.03,0l-.36-.15s.04,.02,.06,.04c0,0,.01,0,.02,0l.36,.15s.03,0,.04,.01c.07,.02,.17,.02,.22,.03s.16,.03,.23,.03c.03,0,.05,0,.07,0l-.4-.05h.01c-.22-.12-.44-.25-.66-.38h0c-.08-.09-.16-.19-.23-.3h0c-.05-.11-.1-.23-.15-.35,0,.01,0,.03,.01,.04l.15,.36v.02s.04,.06,.06,.08c.04,.06,.07,.12,.11,.17l2.05-2.05s-.32-.14-.37-.16c-.13-.04-.28-.06-.42-.06l-.4,.05s-.01,0-.02,0c-.06,.02-.12,.05-.18,.08-.07,.02-.13,.04-.19,.08l-.3,.23h0c.1-.08-.18,.22-.25,.33-.02,.03-.03,.05-.05,.08-.01,.02-.03,.05-.04,.07-.04,.06-.07,.15-.09,.21-.03,.07-.06,.14-.09,.21-.04,.13-.06,.28-.06,.42,0,.07,0,.14,.03,.21,0,.07,.02,.14,.03,.21h0c.05,.13,.1,.25,.15,.37,.04,.06,.08,.11,.12,.16,.04,.06,.08,.11,.13,.16l.3,.23c.17,.11,.36,.17,.56,.18,.13,.04,.27,.04,.4,0,.2,0,.39-.07,.56-.18l.3-.23,.23-.3c.11-.17,.17-.36,.18-.56,.04-.2,.04-.4-.03-.6-.02-.06-.05-.13-.08-.19-.01-.07-.04-.13-.08-.19l-.23-.3h0c-.16-.18-.45-.34-.67-.4-.08-.02-.13-.02-.22-.03-.12-.02-.14-.03-.23-.03l-.4,.05s-.02,0-.02,0c0,0-.02,0-.02,0l-.36,.15s-.03,.01-.05,.02l.36-.15s-.06,.02-.1,.03l.4-.05c-.05,0-.11,0-.16,0l.4,.05c-.09-.01-.19-.04-.28-.07l.36,.15s-.02,0-.03-.01l.3,.23h0c.08,.09,.16,.19,.23,.29h0c.05,.11,.1,.23,.15,.35h0c.02,.12,.04,.25,.05,.39-.02-.14-.01-.28-.06-.42-.02-.06-.05-.13-.08-.18-.06-.19-.16-.35-.31-.48h0c-.1-.09-.2-.17-.3-.24,.03,.02-.26-.13-.39-.16l.36,.15h-.01c.1,.07,.2,.15,.3,.23h0c.08,.09,.16,.19,.23,.29h0c.05,.11,.1,.23,.15,.35h0c.02,.12,.04,.25,.05,.39,0,0,0-.02,0-.02l-.05,.4s0-.02,0-.03c.01-.07,.02-.14,.03-.22,.03-.07,.03-.14,.03-.21,0-.07-.02-.14-.03-.21,0-.14-.03-.26-.1-.38-.09-.22-.11-.3-.32-.49h0c-.1-.09-.2-.17-.3-.24h-.01c-.12-.06-.24-.11-.36-.16-.13-.04-.28-.06-.42-.06-.07,0-.14,0-.21,.03-.07,0-.14,0-.21,.03l1.85,1.05h0c.02,.12,.04,.25,.05,.39,0,0,0-.02,0-.02l-.05,.4h0c-.05,.11-.1,.23-.15,.35,0,0,0-.02,.01-.02l-.23,.3s.01-.01,.02-.02l-.3,.23s.02-.01,.03-.01c.23-.13,.4-.31,.54-.54,.14-.23,.2-.49,.2-.76,0-.53-.29-1.03-.74-1.3l-.06-.04-.36,2.74c.13-.05,.27-.09,.39-.16,.24-.14,.3-.22,.44-.41s.11-.13,.21-.35,.13-.31,.13-.6c0-.21-.04-.4-.13-.58-.06-.19-.16-.35-.31-.48-.14-.15-.3-.25-.48-.31-.18-.09-.37-.14-.58-.13l-.4,.05c-.25,.07-.47,.2-.66,.39l-.23,.3c-.14,.23-.2,.49-.2,.76h0c.02-.12,.04-.25,.05-.39h0c.05-.11,.1-.23,.15-.35,0,0,0,.02-.01,.02l.23-.3h0c.1-.07,.2-.15,.3-.22,0,0-.02,.01-.03,.02l.36-.15h-.02c-.12,.06-.24,.11-.36,.16l-.3,.23-.23,.3c-.11,.17-.17,.36-.18,.56-.04,.13-.04,.27,0,.4,0,.14,.03,.26,.1,.38,.04,.13,.1,.24,.19,.33,.11,.16,.25,.29,.42,.39l.06,.04v-2.59c-.23,.11-.47,.37-.59,.59-.21,.37-.26,.8-.15,1.21,.05,.2,.14,.37,.27,.51,.11,.16,.25,.29,.42,.39l.36,.15c.27,.07,.53,.07,.8,0h.01c-.13,.01-.27,.03-.4,.05h.01c-.13-.02-.27-.04-.4-.05h.01c-.12-.05-.24-.1-.36-.15h.01c-.1-.07-.2-.15-.3-.23h0c-.08-.09-.16-.19-.23-.29h0c-.07-.24-.14-.49-.2-.75v.02c.02-.13,.04-.27,.06-.4,0,.01,0,.02,0,.03v.02c-.02,.13-.04,.27-.06,.4,0,0,0,.02,0,.02l.05,.4c.02,.07,.04,.13,.08,.19,.1,.23,.04,.14,.2,.34s.08,.12,.28,.28,.11,.1,.34,.2c.09,.04,.14,.06,.21,.08l-.66-.39h0c-.13-.21-.26-.43-.39-.65h0c-.02-.12-.04-.25-.05-.39,.02,.14,.02,.29,.06,.42,.04,.13,.09,.25,.16,.37l.23,.3s.1,.09,.16,.13c.05,.05,.11,.09,.16,.13,.06,.03,.13,.06,.19,.08,.06,.03,.13,.06,.19,.08,.07,.02,.14,.04,.21,.06,.02,0,.04,0,.05,0,.14,.02,.29,.04,.43,.06,.04,0,.07,0,.11,0,.16-.01,.32-.02,.47-.07,.07-.02,.16-.06,.22-.09,.08-.03,.15-.06,.23-.1l-.36,.15s.03-.01,.05-.01l-.4,.05s.02,0,.03,0l-.4-.05s.02,0,.03,0l-.36-.15h.01c-.1-.07-.2-.15-.3-.23h0c-.08-.09-.16-.2-.23-.3h0c-.05-.11-.1-.23-.15-.35h0c.84-.48,1.67-.96,2.51-1.45h-.01c.08,.09,.16,.19,.23,.29h0c.05,.11,.1,.23,.15,.35,0,0,0-.02,0-.03l.05,.4h0c-.02,.12-.04,.25-.05,.39,0-.02,0-.03,.01-.04l-.15,.36c.03-.06,.07-.13,.12-.19l-.23,.3h0c-.1,.07-.2,.15-.3,.23h.01c-.12,.04-.24,.09-.36,.14,0,0,.01,0,.02,0l-.4,.05h.01c-.13-.02-.27-.04-.4-.05h.01c-.12-.05-.24-.1-.36-.15h0c.12,.06,.24,.11,.36,.16,.2,.06,.4,.07,.6,.03,.14,0,.26-.03,.38-.1,.19-.06,.35-.16,.48-.31l.23-.3,.15-.36c.06-.2,.07-.4,.03-.6,0-.2-.07-.39-.18-.56-.06-.09-.12-.18-.17-.27l.15,.36s0-.02-.01-.03c-.02-.07-.04-.13-.08-.19-.02-.06-.05-.12-.08-.18-.02-.04-.21-.28-.24-.31-.05-.05-.1-.09-.16-.12-.14-.13-.31-.22-.51-.27h-.01c-.13-.02-.27-.04-.4-.06,0,0-.02,0-.03,0-.03,0-.05,0-.08,0l.4,.05s-.04,0-.06-.02l.36,.15s-.05-.03-.08-.04c-.12-.06-.25-.13-.38-.16-.07-.01-.14-.02-.22-.03-.07-.02-.14-.03-.22-.03-.16,0-.32,.03-.48,.06-.03,0-.06,.01-.09,.02-.15,.05-.29,.11-.42,.18-.03,.01-.06,.03-.09,.05-.16,.09-.3,.21-.43,.33-.15,.14-.25,.3-.31,.48-.09,.18-.14,.37-.13,.58,0,.21,.04,.4,.13,.58,.06,.19,.16,.35,.31,.48l.3,.23c.23,.14,.49,.2,.76,.2l.4-.05c.25-.07,.47-.2,.66-.39h0Z"/></g></g><g><g class="cls-14"><path class="cls-1" d="M192.32,35.52c.09,.1,.22,.16,.35,.17,.02,0,.04,0,.05,0,.02-.01,.03-.03,.05-.05,.03-.03,.07-.05,.11-.05,.01,0,.03,0,.04-.01,0,0,0-.02,0-.03,0-.04,.01-.08,.02-.13,.02-.08,.04-.16,.06-.24,0,.02-.03,.02-.04,.01s-.02-.02-.03-.04c-.03-.04-.05-.09-.08-.13-.03-.05-.06-.11-.03-.16,0,.03-.03,.05-.05,.05s-.05-.02-.08-.03c-.12-.05-.26,.03-.37,.11-.02,.01-.04,.03-.05,.06,0,.02,0,.04,0,.05,0,0-.01,0-.02,.01-.02,.01-.02,.05-.01,.07s.02,.05,.02,.07-.02,.05-.04,.04c0,.05,.02,.09,.06,.11l-.04,.05s.06,.04,.06,.08"/></g><path class="cls-5" d="M192.99,35.03c-.08-.12-.19-.2-.32-.22-.02,0-.04,0-.05,0-.02,0-.04,.03-.05,.04-.03,.03-.08,.04-.12,.03-.01,0-.03,0-.04,0,0,0,0,.02-.01,.03,0,.04-.02,.08-.04,.12-.03,.07-.06,.15-.1,.22,0-.01,.03-.01,.04,0s.02,.03,.03,.04c.02,.05,.04,.1,.06,.14,.02,.05,.04,.12,0,.16,0-.03,.04-.05,.06-.04s.05,.03,.07,.04c.12,.07,.26,.02,.38-.04,.02-.01,.05-.02,.05-.05,0-.02,0-.04,.01-.05,0,0,.01,0,.02-.01,.02-.01,.02-.04,.02-.07s-.01-.05,0-.08,.03-.05,.05-.03c.01-.04,0-.09-.04-.12l.05-.04s-.05-.05-.05-.09"/><g class="cls-14"><path class="cls-1" d="M193.04,35.07c-.08-.12-.19-.2-.32-.22-.02,0-.04,0-.05,0-.02,0-.04,.03-.05,.04-.03,.03-.08,.04-.12,.03-.01,0-.03,0-.04,0,0,0,0,.02-.01,.03,0,.04-.02,.08-.04,.12-.03,.07-.06,.15-.1,.22,0-.01,.03-.01,.04,0s.02,.03,.03,.04c.02,.05,.04,.1,.06,.14,.02,.05,.04,.12,0,.16,0-.03,.04-.05,.06-.04s.05,.03,.07,.04c.12,.07,.26,.02,.38-.04,.02-.01,.05-.02,.05-.05,0-.02,0-.04,.01-.05,0,0,.01,0,.02-.01,.02-.01,.02-.04,.02-.07s-.01-.05,0-.08,.03-.05,.05-.03c.01-.04,0-.09-.04-.12l.05-.04s-.05-.05-.05-.09"/></g><g class="cls-11"><path class="cls-6" d="M192.53,35.68c.13,.04,.27,.02,.38-.05,.02,0,.03-.02,.04-.04,.01-.02,.01-.05,.02-.07,0-.05,.04-.09,.07-.11,.01,0,.03-.02,.03-.03,0-.01,0-.02-.01-.03-.02-.04-.03-.08-.04-.12-.02-.08-.04-.16-.06-.24,0,.02-.01,.03-.03,.03s-.03,0-.04-.01c-.04-.02-.09-.05-.13-.07-.05-.02-.1-.06-.1-.12,.02,.02,0,.06-.02,.07s-.05,.01-.08,.02c-.13,.03-.21,.17-.27,.3-.01,.02-.02,.05-.01,.08,0,.02,.02,.03,.02,.05,0,0,0,.01-.01,.02,0,.02,0,.05,.02,.07s.04,.03,.05,.05,0,.06-.02,.06c.02,.04,.06,.07,.1,.06v.06s.06,0,.08,.04"/></g><g class="cls-10"><path class="cls-3" d="M193.01,35c-.08-.12-.19-.2-.32-.22-.02,0-.04,0-.05,0-.02,0-.04,.03-.05,.04-.03,.03-.08,.04-.12,.03-.01,0-.03,0-.04,0,0,0,0,.02-.01,.03,0,.04-.02,.08-.04,.12-.03,.07-.06,.15-.1,.22,0-.01,.03-.01,.04,0s.02,.03,.03,.04c.02,.05,.04,.1,.06,.14,.02,.05,.04,.12,0,.16,0-.03,.04-.05,.06-.04s.05,.03,.07,.04c.12,.07,.26,.02,.38-.04,.02-.01,.05-.02,.05-.05,0-.02,0-.04,.01-.05,0,0,.01,0,.02-.01,.02-.01,.02-.04,.02-.07s-.01-.05,0-.08,.03-.05,.05-.03c.01-.04,0-.09-.04-.12l.05-.04s-.05-.05-.05-.09"/><path class="cls-9" d="M194.31,34.24c-.08-.13-.18-.24-.28-.36-.02-.02-.03-.04-.05-.05-.01,0-.02-.02-.03-.03-.1-.08-.21-.17-.32-.25-.02-.01-.04-.03-.06-.04-.13-.07-.27-.13-.41-.17-.02,0-.05-.01-.07-.02-.23-.04-.28-.05-.43-.05-.14,0-.28,.02-.41,.06l-.36,.15c-.13,.07-.25,.18-.36,.28l.3-.23s-.03,.02-.05,.03l.36-.15s-.02,0-.04,0l.4-.05s-.02,0-.04,0l.4,.05c-.07-.01-.14-.02-.21-.03-.07-.01-.14-.02-.21-.03l-.4,.05h-.01c-.22,.05-.52,.23-.67,.39l-.23,.3c-.04,.06-.07,.12-.08,.19-.04,.1-.07,.13-.08,.2,0,.01,0,.02,0,.03,0,.02-.02,.05-.03,.07l.15-.36c-.03,.08-.07,.16-.1,.24-.11,.17-.17,.36-.18,.56-.04,.2-.04,.4,.03,.6l.15,.36c.09,.17,.22,.32,.39,.42,.09,.09,.2,.16,.33,.19,.18,.09,.37,.14,.58,.13l.4-.05c.25-.07,.47-.2,.66-.39h0c-.1,.07-.2,.15-.3,.23h0c-.25,.06-.5,.13-.76,.2h0c-.13-.02-.27-.04-.4-.05h0c-.12-.05-.24-.1-.36-.15h0c-.1-.07-.2-.15-.3-.23h0c-.08-.09-.16-.19-.23-.3,0,.01,.01,.02,.02,.03l-.15-.36c.03,.07,.07,.15,.08,.22l-.05-.4s0,.03,0,.04l.05-.4s0,.01,0,.02l.15-.36s0,.01-.01,.02l2.74,1.16h0c-.05,.11-.1,.23-.15,.35,0,0,0-.01,0-.02l-.23,.3h0c-.1,.07-.2,.15-.3,.23h0c-.12,.05-.24,.1-.36,.15,0,0,.01,0,.02,0l-.4,.05s.01,0,.02,0l-.4-.05h.01c-.12-.05-.24-.1-.36-.15,.03,.01,.05,.03,.07,.04,.14,.07,.28,.14,.43,.18,.08,.02,.33,.07,.48,.05l.4-.05s.02,0,.03,0c.02,0,.03,0,.05-.01,.03,0,.06-.02,.08-.03,.11-.04,.3-.11,.43-.18,.21-.11,.46-.35,.58-.57,.03-.06,.06-.12,.08-.19,.03-.06,.06-.12,.08-.19,.04-.14,.04-.29,.06-.43l-.05,.4h0c-.05,.11-.1,.23-.15,.35h0c-.18,.17-.36,.35-.54,.53h.01c-.12,.04-.24,.09-.36,.15h.01c.12-.05,.24-.11,.36-.16h0c.1-.08,.2-.16,.3-.24l.23-.3h0c.07-.12,.13-.25,.16-.38,.01-.06,.05-.35,.06-.41,0,0,0-.01,0-.02,0-.08-.04-.34-.06-.41,0-.01,0-.02,0-.03l.05,.4s0-.02,0-.04l-.05,.4h0c-.05,.11-.1,.23-.15,.35h0c-.08,.09-.16,.19-.23,.29h0c-.1,.07-.2,.15-.3,.23h0c-.12,.04-.24,.1-.36,.15h0c-.13,.02-.27,.03-.4,.05h0c-.25-.07-.5-.14-.76-.2h0c.23,.14,.49,.21,.76,.21,.21,0,.4-.04,.58-.13,.19-.06,.35-.16,.48-.31,.19-.19,.31-.41,.39-.66h0c.02-.14,.04-.28,.05-.41,0,0,0-.01,0-.02h0c-.02-.14-.04-.28-.05-.41-.02-.07-.04-.11-.08-.2-.1-.23-.06-.16-.21-.36-.03-.04-.08-.12-.13-.16-.05-.04-.1-.08-.16-.12-.05-.04-.1-.09-.16-.12l.3,2.36,.05-.04c.19-.19,.31-.41,.39-.66,.06-.2,.07-.4,.03-.6,0-.2-.07-.39-.18-.56-.13-.23-.31-.4-.54-.54,0,0-.01,0-.02-.01l.3,.23s-.01-.01-.01-.02l.23,.3s0-.01-.01-.02l.15,.36s0-.01,0-.02l.05,.4s0-.02,0-.02c0-.21-.04-.4-.13-.58-.06-.19-.16-.35-.31-.48-.14-.15-.3-.25-.48-.31-.18-.09-.37-.14-.58-.13l-.4,.05c-.25,.07-.47,.2-.66,.39l-.23,.3c-.14,.23-.2,.49-.2,.76,0,.26,.08,.59,.22,.81,.04,.06,.08,.11,.12,.16,.04,.05,.08,.11,.12,.16,.09,.1,.21,.19,.33,.25l-.3-2.36-.05,.04c-.19,.19-.31,.41-.39,.66-.06,.2-.07,.4-.03,.6,0,.2,.07,.39,.18,.56,.13,.23,.31,.4,.54,.54h0c-.1-.07-.2-.15-.3-.23,0,0,.01,0,.01,.01l-.23-.3s.01,.02,.02,.03l-.15-.36s0,.01,0,.02l-.05-.4s0,.02,0,.03l.05-.4h0c.73-.29,1.47-.59,2.2-.89-.06-.03-.12-.06-.19-.08-.18-.09-.37-.14-.58-.13-.14,0-.28,.02-.41,.05-.38,.11-.71,.36-.92,.7-.14,.23-.22,.52-.21,.79,0,.15,.04,.31,.06,.46l-.05-.4s0,.02,0,.03l.05-.4h0c.05-.11,.1-.23,.15-.35,0,0,0,.01-.01,.02l.54-.54h0c.12-.04,.24-.09,.36-.15-.06,.03-.13,.05-.19,.08-.07,.02-.13,.05-.19,.08l-.3,.23c-.08,.1-.16,.2-.24,.31-.04,.05-.06,.12-.08,.18-.03,.06-.06,.12-.08,.19l-.05,.4s0,.01,0,.02l.05-.4s0,.01,0,.02l.15-.36h0c.08-.09,.16-.19,.23-.3,0,0,0,.01-.01,.01l.3-.23s-.06,.03-.1,.05l.36-.15c-.05,.02-.1,.04-.16,.05l.4-.05s-.05,0-.08,0l.4,.05s-.03,0-.05-.01l.36,.15s-.05-.03-.07-.04c-.22-.14-.55-.23-.8-.22-.07,0-.14,.01-.21,.03-.07,0-.14,.01-.21,.03-.13,.03-.26,.09-.37,.16-.11,.07-.21,.15-.31,.24l-.23,.3c-.07,.12-.13,.25-.16,.38-.06,.2-.07,.4-.03,.6,0,.2,.07,.39,.18,.56l.23,.3c.14,.15,.3,.25,.48,.31,.12,.07,.24,.1,.38,.1,.2,.04,.4,.04,.6-.03l.36-.15c.23-.13,.4-.31,.54-.54,.16-.23,.2-.52,.22-.8,0,0,0-.02,0-.03,0,0,0-.01,0-.02l-.05-.4c-.01-.05-.03-.1-.05-.14-.01-.03-.02-.05-.03-.08-.05-.12-.1-.26-.16-.38s-.15-.22-.25-.32-.2-.18-.32-.24c-.22-.13-.51-.22-.77-.21-.07,0-.14,.01-.21,.03-.2,0-.39,.07-.56,.18-.12,.07-.23,.15-.32,.25l2.36,1.82c.03-.06,.06-.13,.08-.19,.06-.15,.13-.29,.18-.44,.01-.03,.02-.06,.02-.09l-.15,.36h0c-.18,.17-.36,.35-.54,.53h0c-.12,.05-.24,.1-.36,.15h.01c-.13,.02-.27,.03-.4,.05h.01c-.13-.02-.27-.03-.4-.05,.15,.02,.29,.06,.44,.06,.31,0,.38-.04,.62-.14,.08-.03,.16-.05,.22-.1,.12-.08,.23-.18,.34-.27l-.3,.23s.01,0,.02-.01l-.36,.15h.01c-.13,.01-.27,.03-.4,.05,0,0,.02,0,.03,0l-.4-.05s.07,.02,.1,.03l-.36-.15s.07,.04,.1,.06l-.3-.23s.07,.06,.1,.09l-.23-.3s.02,.03,.03,.04c.09,.17,.22,.32,.39,.42,.14,.13,.31,.22,.51,.27,.2,.06,.4,.07,.6,.03,.2,0,.39-.07,.56-.18l.3-.23c.19-.19,.31-.41,.39-.66l.05-.4c0-.27-.07-.52-.2-.76h0Z"/></g><g class="cls-13"><path class="cls-7" d="M192.99,35.07c-.08-.12-.19-.2-.32-.22-.02,0-.04,0-.05,0-.02,0-.04,.03-.05,.04-.03,.03-.08,.04-.12,.03-.01,0-.03,0-.04,0,0,0,0,.02-.01,.03,0,.04-.02,.08-.04,.12-.03,.07-.06,.15-.1,.22,0-.01,.03-.01,.04,0s.02,.03,.03,.04c.02,.05,.04,.1,.06,.14,.02,.05,.04,.12,0,.16,0-.03,.04-.05,.06-.04s.05,.03,.07,.04c.12,.07,.26,.02,.38-.04,.02-.01,.05-.02,.05-.05,0-.02,0-.04,.01-.05,0,0,.01,0,.02-.01,.02-.01,.02-.04,.02-.07s-.01-.05,0-.08,.03-.05,.05-.03c.01-.04,0-.09-.04-.12l.05-.04s-.05-.05-.05-.09"/></g><g class="cls-12"><path class="cls-3" d="M192.36,35.1c.07-.08,.17-.13,.29-.15,.02,0,.03,0,.05,0,.02,0,.03,.02,.05,.03,.03,.02,.07,.03,.11,.02,.01,0,.03,0,.04,0,0,0,0,.01,.01,.02,0,.03,.02,.05,.04,.08,.03,.05,.06,.1,.09,.15,0,0-.03,0-.04,0s-.02,.02-.02,.03c-.02,.03-.04,.06-.05,.1-.02,.03-.04,.08,0,.11,0-.02-.03-.03-.06-.03s-.04,.02-.06,.03c-.1,.05-.23,.01-.34-.03-.02,0-.04-.02-.05-.03,0-.01,0-.03-.01-.03,0,0-.01,0-.02,0-.02,0-.02-.03-.02-.04s.01-.03,0-.05-.03-.03-.04-.02c0-.03,0-.06,.04-.08l-.04-.03s.05-.04,.05-.06"/><path class="cls-9" d="M193.42,36.16s.04-.04,.06-.05l-.3,.23s.07-.05,.11-.06l-.36,.15s.08-.03,.12-.03l-.4,.05s.02,0,.04,0l-.4-.05s.02,0,.02,0l-.36-.15s.03,.02,.04,.03c0,0,0,0,.01,0l.36,.15s.02,0,.03,0c.07,.02,.18,.03,.22,.03s.15,.03,.22,.03c.02,0,.03,0,.05,0l-.76-.2h0c-.1-.07-.2-.15-.3-.23h0c-.13-.21-.26-.44-.39-.66,.06,.16,.11,.32,.2,.47,.03,.04,.05,.09,.08,.13l2.36-1.82c-.05-.04-.1-.08-.16-.12-.09-.09-.2-.16-.33-.19-.06-.03-.12-.06-.19-.08l-.4-.05c-.07,0-.14,0-.21,.03-.07,0-.14,.02-.21,.03h0c-.12,.05-.24,.1-.36,.15-.05,.04-.11,.08-.16,.12-.06,.03-.11,.07-.16,.12l-.23,.3h0s-.02,.05-.04,.07c-.08,.14-.15,.29-.2,.45-.01,.07-.02,.14-.03,.2-.01,.07-.02,.14-.03,.21,0,.14,.01,.28,.05,.41,0,0,0,0,0,.01l.15,.36c.06,.12,.16,.22,.25,.32l.3,.23c.17,.11,.36,.17,.56,.18,.13,.04,.27,.04,.4,0,.2,0,.39-.07,.56-.18l.3-.23,.23-.3c.11-.17,.17-.36,.18-.56,.04-.2,.04-.4-.03-.6-.02-.06-.04-.13-.08-.19-.01-.07-.04-.13-.08-.19l-.23-.3c-.05-.04-.1-.08-.16-.12-.05-.05-.1-.09-.16-.12l-.36-.15c-.14-.04-.11-.06-.42-.06-.08,0-.11,.01-.22,.03s-.15,.01-.22,.03c-.19,.05-.27,.12-.41,.18l.36-.15s-.04,.01-.06,.01l.4-.05s-.06,0-.1,0l.4,.05c-.07,0-.14-.03-.2-.05l.36,.15s-.01,0-.02,0l.3,.23s0,0-.01-.01l.23,.3h0c.05,.11,.1,.23,.15,.35h0c.02,.12,.04,.26,.05,.39-.02-.14-.01-.28-.06-.41-.02-.06-.04-.12-.08-.18-.06-.19-.16-.35-.31-.48h0c-.1-.08-.2-.16-.3-.24,.13,.08-.26-.12-.38-.16l.36,.15h0c.1,.07,.2,.15,.3,.23h0c.08,.09,.16,.2,.23,.3h0c.05,.11,.1,.23,.15,.35h0c.02,.12,.04,.26,.05,.39,0,0,0-.01,0-.02l-.05,.4c.04-.15,.07-.3,.06-.45l-.05-.4c-.05-.12-.1-.24-.15-.36-.03-.06-.07-.11-.12-.16-.04-.05-.08-.11-.12-.16h0c-.1-.08-.2-.16-.3-.24-.06-.03-.12-.06-.19-.08-.06-.04-.12-.06-.18-.08-.13-.04-.27-.06-.41-.05l-.4,.05c-.12,.05-.24,.1-.37,.15l2.2,.9h0c.02,.12,.04,.26,.05,.39,0,0,0-.01,0-.02l-.05,.4h0c-.05,.11-.1,.23-.15,.35,0,0,0-.01,0-.02l-.23,.3s0,0,.01-.01l-.3,.23s.01,0,.02-.01c.23-.13,.4-.31,.54-.54,.14-.23,.2-.49,.2-.76,0-.27-.07-.52-.2-.76-.13-.23-.31-.4-.54-.54l-.04-.03-.36,2.74c.13-.05,.27-.09,.38-.17l.3-.23c.09-.09,.17-.2,.24-.31,.14-.23,.22-.53,.22-.8,0-.21-.04-.4-.13-.58-.06-.19-.16-.35-.31-.48-.14-.15-.3-.25-.48-.31-.18-.09-.37-.14-.58-.13l-.4,.05c-.25,.07-.47,.2-.66,.39l-.23,.3c-.14,.23-.2,.49-.2,.76h0c.02-.12,.04-.26,.05-.39,0,0,0,.01,0,.02l.15-.36s0,.01,0,.02l.23-.3h0c.1-.07,.2-.15,.3-.23,0,0-.01,0-.02,.01l.36-.15h0c-.12,.05-.24,.1-.36,.15l-.3,.23-.23,.3c-.11,.17-.17,.36-.18,.56-.04,.13-.04,.27,0,.4,0,.14,.03,.26,.1,.38,.04,.13,.1,.24,.19,.33,.11,.16,.25,.29,.42,.39l.04,.03v-2.59c-.23,.12-.45,.35-.58,.57-.14,.24-.21,.49-.21,.77,0,.14,.02,.29,.06,.43,.07,.25,.2,.47,.39,.66,.14,.15,.3,.25,.48,.31,.18,.09,.37,.14,.58,.13,.27,0,.52-.07,.76-.2h0c-.25,.07-.5,.13-.76,.2h0c-.13-.02-.27-.04-.4-.05h0c-.12-.05-.24-.1-.36-.15h0c-.1-.07-.2-.15-.3-.23,0,0,0,0,.01,.01l-.23-.3h0c-.07-.25-.14-.5-.2-.75h0c.02-.12,.04-.25,.05-.39,0,0,0,.02,0,.02h0c-.02,.15-.04,.28-.05,.41,0,0,0,.01,0,.02l.05,.4c.01,.07,.04,.13,.08,.19,.1,.24,.04,.14,.2,.34s.07,.12,.27,.28,.1,.1,.34,.2c.07,.03,.13,.05,.2,.08l-.66-.39h0c-.13-.21-.26-.43-.39-.66h0c-.02-.12-.04-.26-.05-.39,.02,.14,.02,.28,.06,.42,.07,.25,.21,.49,.39,.67,.22,.22,.4,.3,.69,.4,.05,.02,.1,.03,.14,.04,.01,0,.02,0,.04,0,.13,.02,.29,.05,.42,.06,.02,0,.05,0,.07,0,.15-.01,.31-.02,.46-.07s.28-.12,.42-.18l-.36,.15s.01,0,.02,0l-.4,.05s.01,0,.02,0l-.4-.05s.01,0,.02,0l-.36-.15h0c-.1-.07-.2-.15-.3-.23h0c-.08-.1-.16-.2-.23-.3h0c-.05-.11-.1-.23-.15-.35h0c.84-.48,1.67-.97,2.51-1.45h0c.08,.09,.16,.2,.23,.3h0c.05,.11,.1,.23,.15,.35,0,0,0-.01,0-.02l.05,.4s0-.01,0-.02l-.05,.4s0-.02,0-.03l-.15,.36s.05-.1,.08-.14l-.23,.3h0c-.1,.07-.2,.15-.3,.23h0c-.12,.04-.24,.1-.36,.15,0,0,.01,0,.02,0l-.4,.05h0c-.13-.02-.27-.04-.4-.05h0c-.22-.13-.44-.25-.66-.38h0c.14,.15,.3,.25,.48,.31,.18,.09,.37,.14,.58,.13l.4-.05c.2-.05,.37-.14,.51-.27,.11-.07,.2-.16,.27-.27,.13-.14,.22-.31,.27-.51l.05-.4c0-.27-.07-.52-.2-.76-.04-.07-.09-.13-.12-.2l.15,.36c-.03-.08-.05-.13-.09-.22-.04-.13-.1-.24-.19-.33-.04-.05-.08-.11-.12-.15-.04-.05-.09-.09-.15-.12-.05-.05-.1-.09-.16-.12l-.36-.15-.4-.05s-.01,0-.02,0c-.02,0-.04,0-.06,0l.4,.05s-.03,0-.04-.01l.36,.15s-.04-.02-.06-.03l-.36-.15s-.01,0-.02,0c-.13-.04-.28-.06-.42-.06,0,0-.02,0-.02,0l-.4,.05s-.02,0-.04,0c-.02,0-.04,.01-.06,.02-.14,.05-.27,.11-.41,.17-.02,0-.04,.02-.05,.03,0,0-.02,.01-.02,.02-.05,.04-.11,.08-.16,.12-.05,.04-.11,.08-.16,.12-.02,.01-.03,.03-.05,.05-.15,.14-.25,.3-.31,.48-.09,.18-.14,.37-.13,.58,0,.21,.04,.4,.13,.58,.06,.19,.16,.35,.31,.48l.3,.23c.23,.14,.49,.2,.76,.2l.4-.05c.25-.07,.47-.2,.66-.39h0Z"/></g></g><g><path d="M62.55,74.83v.14c-.05,.11-.08,.29-.1,.51-.02,.23-.03,.43-.03,.62,0,.71,.1,1.49,.29,2.34,.19,.85,.56,1.92,1.11,3.2l15.14,34.15,14.63-33.87c.34-.84,.71-1.77,1.09-2.77,.39-1,.58-2.02,.58-3.04,0-.27-.02-.51-.07-.7-.05-.19-.09-.34-.14-.43v-.14h7.01v.14c-.43,.43-.96,1.21-1.57,2.32-.62,1.12-1.29,2.5-2.02,4.14l-19.58,43.48h-2.73l-18.56-41.8c-.43-.98-.88-1.93-1.35-2.84-.47-.91-.91-1.74-1.32-2.48-.41-.74-.77-1.36-1.09-1.86-.32-.5-.54-.82-.65-.96v-.14h9.37Z"/><path d="M105.85,102.21c0-1.94-.03-3.63-.09-5.08-.06-1.45-.13-2.69-.21-3.74-.08-1.05-.18-1.93-.31-2.63-.13-.71-.26-1.3-.39-1.78v-.14h7.9v.14c-.14,.48-.26,1.07-.38,1.78-.11,.71-.22,1.58-.31,2.63-.09,1.05-.16,2.3-.21,3.74-.05,1.45-.07,3.14-.07,5.08v8.27c0,1.94,.02,3.63,.07,5.08,.05,1.45,.11,2.69,.21,3.74,.09,1.05,.19,1.93,.31,2.63,.11,.71,.24,1.3,.38,1.78v.14h-7.9v-.14c.14-.48,.27-1.07,.39-1.78,.12-.71,.23-1.58,.31-2.63,.08-1.05,.15-2.29,.21-3.74,.06-1.45,.09-3.14,.09-5.08v-8.27Zm-.72-23.72c0-.5,.1-.97,.29-1.42,.19-.44,.45-.83,.77-1.16,.32-.33,.7-.59,1.15-.79,.44-.19,.93-.29,1.45-.29s1.01,.1,1.45,.29c.44,.19,.83,.46,1.16,.79,.33,.33,.59,.72,.79,1.16,.19,.44,.29,.92,.29,1.42,0,1.05-.35,1.93-1.06,2.63s-1.58,1.06-2.63,1.06c-.52,0-1.01-.1-1.45-.29-.44-.19-.83-.46-1.15-.79-.32-.33-.58-.72-.77-1.16-.19-.44-.29-.93-.29-1.45Z"/><path d="M147.16,100.81c0-3.01-.6-5.22-1.81-6.63-1.21-1.41-2.83-2.12-4.85-2.12-.73,0-1.55,.15-2.46,.46-.91,.31-1.85,.72-2.8,1.23s-1.91,1.11-2.87,1.79-1.86,1.41-2.7,2.19l-.07,4.48v8.27c0,1.94,.02,3.63,.07,5.08,.04,1.45,.11,2.69,.21,3.74,.09,1.05,.19,1.93,.31,2.63,.11,.71,.24,1.3,.38,1.78v.14h-7.9v-.14c.14-.48,.27-1.07,.39-1.78,.12-.71,.23-1.58,.31-2.63,.08-1.05,.15-2.29,.2-3.74s.09-3.14,.09-5.08v-8.27c0-1.94-.03-3.63-.09-5.08-.06-1.45-.12-2.69-.2-3.74-.08-1.05-.18-1.93-.31-2.63-.13-.71-.26-1.3-.39-1.78v-.14h7.9v.14c-.18,.57-.32,1.29-.43,2.17-.1,.88-.21,2.02-.32,3.44,.93-.77,1.94-1.55,3.03-2.32,1.08-.77,2.2-1.46,3.37-2.07,1.16-.6,2.35-1.09,3.55-1.47,1.21-.38,2.39-.56,3.55-.56,1.78,0,3.29,.31,4.53,.92s2.26,1.42,3.04,2.43c.79,1,1.35,2.15,1.71,3.44,.35,1.29,.53,2.59,.53,3.91v11.62c0,1.94,.02,3.63,.07,5.08,.04,1.45,.11,2.69,.21,3.74,.09,1.05,.19,1.93,.31,2.63,.11,.71,.24,1.3,.38,1.78v.14h-7.9v-.14c.14-.48,.27-1.07,.39-1.78,.12-.71,.23-1.58,.31-2.63,.08-1.05,.15-2.29,.21-3.74s.09-3.14,.09-5.08v-9.67Z"/><path d="M225.25,105.49c-.84,4.54-2.64,8.36-5.4,11.48,2.32,2.32,4.71,4.47,7.14,6.44,2.44,1.97,4.84,3.69,7.19,5.14,2.36,1.46,4.63,2.6,6.82,3.42s4.19,1.23,6.02,1.23c.73,0,1.46-.07,2.19-.21v.79c-.27,.11-.63,.27-1.08,.48-.44,.21-.99,.4-1.64,.58-.65,.18-1.41,.34-2.29,.48-.88,.14-1.88,.21-2.99,.21-1.78,0-3.7-.37-5.76-1.11-2.06-.74-4.2-1.77-6.41-3.08-2.21-1.31-4.45-2.87-6.72-4.67-2.27-1.8-4.48-3.77-6.65-5.91-1.98,1.34-4.17,2.38-6.54,3.11-2.38,.73-4.99,1.09-7.81,1.09-2.55,0-4.85-.32-6.89-.96-2.04-.64-3.77-1.55-5.18-2.73-1.41-1.18-2.5-2.62-3.26-4.31-.76-1.69-1.14-3.58-1.14-5.67s.38-3.79,1.13-5.35c.75-1.56,1.74-2.97,2.96-4.22,1.22-1.25,2.62-2.39,4.19-3.42s3.18-2.02,4.82-2.97c-.66-1.71-1.17-3.37-1.54-4.99-.37-1.62-.55-3.17-.55-4.65,0-1.8,.29-3.42,.87-4.87,.58-1.45,1.37-2.67,2.38-3.67,1-1,2.18-1.78,3.54-2.32,1.35-.55,2.81-.82,4.36-.82,1.14,0,2.21,.16,3.21,.48,1,.32,1.87,.79,2.62,1.42,.74,.63,1.33,1.41,1.76,2.34,.43,.93,.65,2.02,.65,3.25,0,1.55-.33,2.94-.97,4.17-.65,1.23-1.5,2.36-2.56,3.38-1.06,1.03-2.27,1.98-3.64,2.87s-2.78,1.75-4.24,2.6c.73,1.71,1.6,3.44,2.61,5.2,1.01,1.75,2.12,3.5,3.33,5.25,1.21,1.74,2.51,3.46,3.9,5.14,1.39,1.69,2.83,3.33,4.31,4.92,1.09-1.48,1.95-3.17,2.58-5.06,.63-1.89,.94-3.96,.94-6.22,0-1.91-.11-3.51-.32-4.8-.22-1.29-.44-2.39-.67-3.3v-.14h6.15v.14c-.16,.55-.28,1.16-.36,1.83-.08,.67-.17,1.41-.26,2.22-.09,.81-.19,1.7-.31,2.67-.11,.97-.27,2.01-.48,3.13Zm-21.36,16.41c1.87,0,3.65-.25,5.35-.75,1.7-.5,3.25-1.23,4.67-2.19-1.55-1.64-3.05-3.33-4.51-5.08-1.46-1.74-2.83-3.52-4.1-5.33-1.28-1.81-2.46-3.63-3.54-5.47-1.08-1.83-2.02-3.64-2.82-5.42-1.07,.73-2.07,1.49-2.99,2.29-.92,.8-1.73,1.67-2.41,2.63s-1.23,2-1.62,3.13c-.4,1.13-.6,2.36-.6,3.71,0,1.78,.31,3.43,.94,4.96,.63,1.53,1.5,2.85,2.61,3.96,1.12,1.12,2.44,1.99,3.98,2.62,1.54,.63,3.22,.94,5.04,.94Zm-2.56-38.01c0,1.32,.15,2.68,.44,4.08,.3,1.4,.71,2.85,1.23,4.36,1.12-.71,2.16-1.44,3.13-2.19,.97-.75,1.81-1.57,2.53-2.44,.72-.88,1.28-1.82,1.69-2.82,.41-1,.62-2.11,.62-3.32,0-.68-.09-1.33-.26-1.93-.17-.6-.43-1.14-.77-1.61-.34-.47-.78-.83-1.32-1.09-.54-.26-1.16-.39-1.86-.39-1.82,0-3.18,.65-4.08,1.95s-1.35,3.1-1.35,5.4Z"/><path d="M270.52,110.48c0,1.94,.03,3.63,.09,5.08,.06,1.45,.12,2.69,.21,3.74,.08,1.05,.18,1.93,.31,2.63s.26,1.3,.39,1.78v.14h-8.2v-.14c.14-.48,.27-1.07,.39-1.78,.12-.71,.23-1.58,.31-2.63,.08-1.05,.15-2.29,.21-3.73s.09-3.13,.09-5.09v-22.25c0-1.94-.03-3.63-.09-5.08-.06-1.45-.12-2.69-.21-3.74-.08-1.05-.18-1.93-.31-2.65-.13-.72-.26-1.32-.39-1.79v-.14l1.44,.14c.43,.05,.92,.07,1.45,.09,.54,.01,1.09,.02,1.66,.02,.89,0,2.09-.11,3.61-.32,1.52-.22,3.45-.32,5.79-.32,2.19,0,4.21,.3,6.07,.89,1.86,.59,3.47,1.46,4.84,2.6,1.37,1.14,2.43,2.54,3.2,4.19,.76,1.65,1.15,3.53,1.15,5.62,0,1.64-.21,3.16-.63,4.56-.42,1.4-1.01,2.67-1.78,3.81-.76,1.14-1.68,2.15-2.75,3.02-1.07,.88-2.27,1.61-3.59,2.2l12,16.85c.59,.84,1.14,1.57,1.66,2.19,.51,.62,1,1.15,1.47,1.59,.47,.45,.92,.81,1.35,1.09,.43,.29,.88,.51,1.33,.67v.14h-9.88c-.07-.43-.29-1.01-.67-1.73-.38-.72-.81-1.43-1.32-2.14l-12.1-17.06c-.52,.05-1.05,.08-1.57,.12-.52,.03-1.06,.05-1.61,.05-.64,0-1.28-.02-1.93-.07-.65-.04-1.3-.12-1.96-.24v7.69Zm0-10.36c.62,.14,1.24,.23,1.88,.29,.64,.06,1.25,.09,1.85,.09,1.71,0,3.27-.26,4.68-.77,1.41-.51,2.62-1.29,3.61-2.34,.99-1.05,1.76-2.35,2.31-3.91,.55-1.56,.82-3.39,.82-5.49,0-1.71-.19-3.26-.58-4.65-.39-1.39-.96-2.57-1.73-3.54-.76-.97-1.73-1.72-2.89-2.26-1.16-.54-2.52-.8-4.07-.8s-2.83,.08-3.76,.24c-.93,.16-1.64,.33-2.12,.51v22.63Z"/><path d="M321.48,124.46c-2.53,0-4.9-.4-7.11-1.2-2.21-.8-4.14-1.96-5.78-3.5-1.64-1.54-2.93-3.44-3.88-5.71s-1.42-4.86-1.42-7.78c0-2.58,.43-4.96,1.3-7.16,.87-2.2,2.06-4.11,3.59-5.73,1.53-1.62,3.31-2.88,5.35-3.79,2.04-.91,4.24-1.37,6.61-1.37s4.52,.4,6.53,1.21c2,.81,3.74,1.98,5.21,3.52,1.47,1.54,2.63,3.44,3.49,5.71,.85,2.27,1.32,4.85,1.38,7.74-2.58-.05-5.15-.08-7.72-.1-2.58-.02-5.25-.03-8.03-.03-1.98,0-3.91,.01-5.79,.03-1.88,.02-3.57,.06-5.08,.1,.14,2.37,.51,4.51,1.11,6.43,.6,1.91,1.44,3.55,2.49,4.91,1.06,1.36,2.35,2.4,3.86,3.13,1.51,.73,3.23,1.09,5.14,1.09,1.32,0,2.57-.15,3.74-.46,1.17-.31,2.24-.74,3.2-1.28s1.81-1.19,2.56-1.93,1.39-1.54,1.91-2.41l.41,.21-2.53,6.08c-1.23,.64-2.7,1.18-4.41,1.62-1.71,.45-3.76,.67-6.15,.67Zm-4.55-20.85c2.28,0,4.56,0,6.85-.02,2.29-.01,4.37-.05,6.24-.12-.21-1.98-.59-3.76-1.16-5.33-.57-1.57-1.3-2.91-2.19-4s-1.94-1.94-3.14-2.53c-1.21-.59-2.54-.89-4-.89-1.32,0-2.54,.29-3.64,.87-1.11,.58-2.07,1.42-2.89,2.51s-1.48,2.43-1.98,4.02c-.5,1.58-.8,3.39-.89,5.42,1.03,.05,2.11,.07,3.25,.07h3.55Z"/><path d="M345.29,102.21c0-1.94-.03-3.63-.09-5.08-.06-1.45-.12-2.69-.21-3.74-.08-1.05-.18-1.93-.31-2.63-.13-.71-.26-1.3-.39-1.78v-.14h7.9v.14c-.14,.48-.26,1.07-.38,1.78-.11,.71-.22,1.58-.31,2.63-.09,1.05-.16,2.3-.21,3.74-.05,1.45-.07,3.14-.07,5.08v18.08c0,3.08-.34,5.74-1.01,8-.67,2.26-1.6,4.25-2.77,5.98-1.17,1.73-2.55,3.29-4.13,4.67-1.58,1.38-3.29,2.72-5.11,4.02l-.65-.82c1.57-1.44,2.86-2.93,3.86-4.48,1-1.55,1.79-3.21,2.36-4.97,.57-1.77,.96-3.67,1.18-5.71,.22-2.04,.32-4.27,.32-6.68v-18.08Zm-.72-23.72c0-.5,.1-.97,.29-1.42s.45-.83,.77-1.16c.32-.33,.7-.59,1.14-.79,.45-.19,.93-.29,1.45-.29s1.01,.1,1.45,.29c.44,.19,.83,.46,1.16,.79,.33,.33,.59,.72,.79,1.16s.29,.92,.29,1.42c0,1.05-.35,1.93-1.06,2.63-.71,.71-1.58,1.06-2.63,1.06-.52,0-1.01-.1-1.45-.29-.44-.19-.83-.46-1.14-.79-.32-.33-.58-.72-.77-1.16s-.29-.93-.29-1.45Z"/><path d="M378.37,95.72l-.48,.07c-.16-.52-.42-1.08-.77-1.67-.35-.59-.81-1.14-1.37-1.64-.56-.5-1.23-.92-2.02-1.25-.79-.33-1.69-.5-2.72-.5-.71,0-1.37,.1-2,.31-.63,.21-1.17,.51-1.64,.91-.47,.4-.84,.89-1.11,1.49-.27,.59-.41,1.29-.41,2.08,0,1.12,.35,2.18,1.04,3.2,.69,1.01,1.57,2.02,2.61,3.01,1.05,.99,2.18,1.99,3.4,2.99,1.22,1,2.35,2.05,3.4,3.14,1.05,1.09,1.92,2.26,2.62,3.5,.69,1.24,1.04,2.58,1.04,4.02,0,1.16-.21,2.3-.62,3.4s-1.04,2.09-1.9,2.96c-.85,.87-1.95,1.57-3.28,2.1-1.33,.54-2.92,.8-4.77,.8-1.09,0-2.11-.1-3.06-.31-.95-.21-1.81-.46-2.6-.77-.79-.31-1.49-.65-2.12-1.03-.63-.38-1.18-.74-1.66-1.08l.34-6.49h.55c.23,1.07,.57,2.05,1.03,2.94,.46,.89,1.02,1.65,1.69,2.27,.67,.63,1.44,1.12,2.31,1.47,.87,.35,1.81,.53,2.84,.53,1.69,0,3.03-.47,4.02-1.4,.99-.93,1.49-2.15,1.49-3.66,0-1.21-.34-2.32-1.01-3.33s-1.52-1.99-2.55-2.92-2.12-1.87-3.3-2.8c-1.17-.93-2.27-1.93-3.3-2.99-1.03-1.06-1.88-2.22-2.55-3.49-.67-1.26-1.01-2.71-1.01-4.32,0-1.32,.24-2.53,.73-3.64,.49-1.1,1.17-2.05,2.05-2.84s1.92-1.4,3.13-1.83c1.21-.43,2.53-.65,3.96-.65,1.89,0,3.47,.2,4.73,.6,1.27,.4,2.23,.78,2.89,1.15l.34,5.67Z"/></g></svg>