<?xml version="1.0" encoding="utf-8"?>
<!-- Generator: Adobe Illustrator 26.5.0, SVG Export Plug-In . SVG Version: 6.00 Build 0)  -->
<svg version="1.1" id="Layer_1" xmlns="http://www.w3.org/2000/svg" xmlns:xlink="http://www.w3.org/1999/xlink" x="0px" y="0px"
	 viewBox="0 0 32 32" style="enable-background:new 0 0 32 32;" xml:space="preserve">
<path d="M5.3,26.7c-0.7,0-1.4-0.3-1.9-0.8c-0.5-0.5-0.8-1.2-0.8-1.9V8c0-0.7,0.3-1.4,0.8-1.9C4,5.6,4.6,5.3,5.3,5.3h21.3
	c0.7,0,1.4,0.3,1.9,0.8c0.5,0.5,0.8,1.1,0.8,1.9v16c0,0.7-0.3,1.4-0.8,1.9c-0.5,0.5-1.2,0.8-1.9,0.8H5.3z M26.7,10.7l-10,6.2
	C16.6,17,16.5,17,16.3,17c-0.1,0-0.2,0.1-0.3,0.1s-0.2,0-0.3-0.1c-0.1,0-0.2-0.1-0.4-0.1l-10-6.2V24h21.3V10.7z M16,14.7L26.7,8H5.3
	L16,14.7z M5.3,10.7V11V9v0V8v1.1v0v2V10.7V24V10.7z"/>
</svg>
