<?xml version="1.0" encoding="utf-8"?>
<!-- Generator: Adobe Illustrator 26.5.0, SVG Export Plug-In . SVG Version: 6.00 Build 0)  -->
<svg version="1.1" id="Layer_1" xmlns="http://www.w3.org/2000/svg" xmlns:xlink="http://www.w3.org/1999/xlink" x="0px" y="0px"
	 viewBox="0 0 32 32" style="enable-background:new 0 0 32 32;" xml:space="preserve">
<path d="M25.6,20.3L22.3,20c-0.8-0.1-1.6,0.2-2.2,0.8l-2.5,2.5c-3.8-1.9-6.9-5-8.8-8.8l2.5-2.5c0.6-0.6,0.9-1.4,0.8-2.2l-0.4-3.4
	C11.5,5,10.4,4,9,4H6.7C5.2,4,3.9,5.3,4,6.8C4.7,18.2,13.9,27.3,25.2,28c1.5,0.1,2.8-1.2,2.8-2.7V23C28,21.6,27,20.5,25.6,20.3z"/>
</svg>
