<?xml version="1.0" encoding="utf-8"?>
<!-- Generator: Adobe Illustrator 26.5.0, SVG Export Plug-In . SVG Version: 6.00 Build 0)  -->
<svg version="1.1" id="Layer_1" xmlns="http://www.w3.org/2000/svg" xmlns:xlink="http://www.w3.org/1999/xlink" x="0px" y="0px"
	 viewBox="0 0 28 32" style="enable-background:new 0 0 28 32;" xml:space="preserve">
<path d="M11.7,12.6l5.9,3.4l-5.9,3.4V12.6z M28,5v22c0,1.7-1.3,3-3,3H3c-1.7,0-3-1.3-3-3V5c0-1.7,1.3-3,3-3h22C26.7,2,28,3.3,28,5z
	 M25.4,16c0,0,0-3.7-0.5-5.5c-0.3-1-1-1.8-2-2C21.1,8,14,8,14,8S6.9,8,5.1,8.5c-1,0.3-1.8,1-2,2C2.6,12.3,2.6,16,2.6,16
	s0,3.7,0.5,5.5c0.3,1,1,1.7,2,2C6.9,24,14,24,14,24s7.1,0,8.9-0.5c1-0.3,1.8-1,2-2C25.4,19.7,25.4,16,25.4,16z"/>
</svg>
